<svg width="42" height="42" viewBox="0 0 42 42" fill="none" xmlns="http://www.w3.org/2000/svg">
<g clip-path="url(#clip0_2033_1054)">
<path d="M41.7694 6.47022C41.725 6.4237 41.6643 6.39485 41.598 6.39485H35.1129C35.1073 5.76066 34.8645 5.15827 34.4363 4.70956C34.003 4.25556 33.4197 4 32.8066 4H30.1597C29.5466 4 28.9633 4.25556 28.53 4.70956C28.1018 5.15827 27.859 5.76066 27.8534 6.39485H21.3683C21.302 6.39485 21.2408 6.4237 21.1969 6.47022C21.1525 6.51674 21.125 6.58034 21.125 6.64982V8.60598C21.125 10.2018 21.7482 11.6533 22.7525 12.7055C23.7567 13.7578 25.1414 14.4109 26.6649 14.4109H30.2727V13.7725C30.2727 13.4234 30.4087 13.106 30.6278 12.8763C30.847 12.6467 31.1499 12.5042 31.4832 12.5042C31.8164 12.5042 32.1193 12.6467 32.3385 12.8763C32.5576 13.106 32.6936 13.4234 32.6936 13.7725V14.4109H36.3015C37.8244 14.4109 39.2096 13.7578 40.2139 12.7055C41.2181 11.6533 41.8413 10.2023 41.8413 8.60598V6.64982C41.8413 6.58034 41.8138 6.51674 41.7694 6.47022ZM29.2342 6.40015C29.2387 6.14812 29.3365 5.91082 29.5067 5.73239C29.6804 5.54985 29.9136 5.4468 30.1597 5.4468H32.8066C33.0527 5.4468 33.2859 5.54985 33.4596 5.73239C33.6299 5.91082 33.7277 6.14812 33.7322 6.40015H29.2342Z" fill="white"/>
<path d="M36.3009 15.1345H32.6931V16.1697C32.6931 16.5189 32.5571 16.8363 32.3379 17.066C32.1187 17.2956 31.8158 17.4381 31.4826 17.4381C31.1494 17.4381 30.8465 17.2956 30.6273 17.066C30.4081 16.8363 30.2721 16.5189 30.2721 16.1697V15.1345H26.6643C24.9509 15.1345 23.3931 14.4002 22.2641 13.2173C21.8089 12.7403 21.4228 12.1897 21.125 11.585V20.91C21.125 20.9795 21.1525 21.0431 21.1969 21.0896C21.2413 21.1361 21.302 21.1649 21.3683 21.1649H41.598C41.6643 21.1649 41.725 21.1361 41.7694 21.0896C41.8138 21.0431 41.8413 20.9795 41.8413 20.91V11.585C41.5429 12.1897 41.1574 12.7397 40.7022 13.2173C39.5732 14.4002 38.0155 15.1345 36.302 15.1345H36.3009Z" fill="white"/>
<path d="M31.8458 16.5543C31.9402 16.4554 31.9986 16.3194 31.9986 16.1698V13.7732C31.9986 13.6236 31.9402 13.4876 31.8458 13.3887C31.7514 13.2898 31.6215 13.2285 31.4788 13.2285C31.3361 13.2285 31.2062 13.2898 31.1118 13.3887C31.0174 13.4876 30.959 13.6236 30.959 13.7732V16.1698C30.959 16.3194 31.0174 16.4554 31.1118 16.5543C31.2062 16.6533 31.3361 16.7145 31.4788 16.7145C31.6215 16.7145 31.7514 16.6533 31.8458 16.5543Z" fill="white"/>
</g>
<g clip-path="url(#clip1_2033_1054)">
<path d="M21.0546 23.7201C21.0114 23.672 20.9525 23.6421 20.888 23.6421H14.5882C14.5828 22.986 14.347 22.3629 13.931 21.8987C13.5101 21.429 12.9434 21.1647 12.3478 21.1647H9.7766C9.18101 21.1647 8.61435 21.429 8.19346 21.8987C7.77747 22.3629 7.54164 22.986 7.53618 23.6421H1.23638C1.17196 23.6421 1.11246 23.672 1.06988 23.7201C1.02675 23.7682 1 23.834 1 23.9059V25.9295C1 27.5803 1.60541 29.0819 2.58096 30.1704C3.5565 31.259 4.90162 31.9345 6.38158 31.9345H9.88632V31.2742C9.88632 30.913 10.0184 30.5846 10.2313 30.3471C10.4442 30.1095 10.7385 29.9621 11.0622 29.9621C11.3859 29.9621 11.6802 30.1095 11.8931 30.3471C12.106 30.5846 12.2381 30.913 12.2381 31.2742V31.9345H15.7428C17.2223 31.9345 18.5679 31.259 19.5435 30.1704C20.519 29.0819 21.1244 27.5809 21.1244 25.9295V23.9059C21.1244 23.834 21.0977 23.7682 21.0546 23.7201ZM8.87748 23.6476C8.88185 23.3869 8.97684 23.1414 9.14225 22.9568C9.31093 22.768 9.53749 22.6614 9.7766 22.6614H12.3478C12.5869 22.6614 12.8135 22.768 12.9822 22.9568C13.1476 23.1414 13.2426 23.3869 13.2469 23.6476H8.87748Z" fill="white"/>
<path d="M15.7423 32.6833H12.2376V33.7542C12.2376 34.1155 12.1054 34.4438 11.8925 34.6814C11.6796 34.9189 11.3854 35.0663 11.0617 35.0663C10.7379 35.0663 10.4437 34.9189 10.2308 34.6814C10.0179 34.4438 9.88578 34.1155 9.88578 33.7542V32.6833H6.38104C4.71656 32.6833 3.20329 31.9237 2.10656 30.6999C1.66437 30.2065 1.28933 29.637 1 29.0114V38.6579C1 38.7298 1.02675 38.7956 1.06988 38.8437C1.113 38.8918 1.17196 38.9217 1.23638 38.9217H20.888C20.9525 38.9217 21.0114 38.8918 21.0546 38.8437C21.0977 38.7956 21.1244 38.7298 21.1244 38.6579V29.0114C20.8345 29.637 20.4601 30.2059 20.0179 30.6999C18.9211 31.9237 17.4079 32.6833 15.7434 32.6833H15.7423Z" fill="white"/>
<path d="M11.42 34.1521C11.5118 34.0497 11.5685 33.909 11.5685 33.7543V31.275C11.5685 31.1203 11.5118 30.9796 11.42 30.8772C11.3283 30.7749 11.2022 30.7115 11.0636 30.7115C10.9249 30.7115 10.7988 30.7749 10.7071 30.8772C10.6154 30.9796 10.5586 31.1203 10.5586 31.275V33.7543C10.5586 33.909 10.6154 34.0497 10.7071 34.1521C10.7988 34.2544 10.9249 34.3177 11.0636 34.3177C11.2022 34.3177 11.3283 34.2544 11.42 34.1521Z" fill="white"/>
</g>
<g clip-path="url(#clip2_2033_1054)">
<path d="M15.7984 11.9906L6.32812 5.18384V18.7974L15.7984 11.9906Z" fill="white"/>
</g>
<g clip-path="url(#clip3_2033_1054)">
<path d="M26.4496 32.1148L35.9199 38.9216L35.9199 25.308L26.4496 32.1148Z" fill="white"/>
</g>
<defs>
<clipPath id="clip0_2033_1054">
<rect width="20.7163" height="17.165" fill="white" transform="translate(21.125 4)"/>
</clipPath>
<clipPath id="clip1_2033_1054">
<rect width="20.1244" height="17.7569" fill="white" transform="translate(1 21.1649)"/>
</clipPath>
<clipPath id="clip2_2033_1054">
<rect width="9.47032" height="13.6136" fill="white" transform="translate(6.32812 5.18384)"/>
</clipPath>
<clipPath id="clip3_2033_1054">
<rect width="9.47032" height="13.6136" fill="white" transform="translate(35.9199 38.9216) rotate(-180)"/>
</clipPath>
</defs>
</svg>
