<svg width="42" height="42" viewBox="0 0 42 42" fill="none" xmlns="http://www.w3.org/2000/svg">
<g clip-path="url(#clip0_2033_1052)">
<path d="M29.3891 17.1458C29.3891 19.4425 27.5267 21.3056 25.2287 21.3056C22.9306 21.3056 21.0682 19.4435 21.0682 17.1458C21.0682 19.4425 19.2058 21.3056 16.9078 21.3056C14.6097 21.3056 12.7473 19.4435 12.7473 17.1458C12.7473 19.3865 10.9741 21.2135 8.75391 21.3008V33.1026H16.3771V24.3872H25.7574V33.1026H33.3806V21.3008C31.1604 21.2125 29.3882 19.3865 29.3882 17.1458H29.3891Z" fill="white"/>
<path d="M33.1901 8.99976H8.94783L5 17.27C5.0655 19.1919 6.6507 20.7351 8.58807 20.7351C10.5254 20.7351 12.179 19.1245 12.179 17.1447C12.179 16.8306 12.4343 16.5753 12.7485 16.5753C13.0627 16.5753 13.3181 16.8306 13.3181 17.1447C13.3181 19.1245 14.9289 20.7351 16.909 20.7351C18.8891 20.7351 20.4999 19.1245 20.4999 17.1447C20.4999 16.8306 20.7553 16.5753 21.0694 16.5753C21.3836 16.5753 21.639 16.8306 21.639 17.1447C21.639 19.1245 23.2498 20.7351 25.2299 20.7351C27.21 20.7351 28.8208 19.1245 28.8208 17.1447C28.8208 16.8306 29.0762 16.5753 29.3904 16.5753C29.7046 16.5753 29.9599 16.8306 29.9599 17.1447C29.9599 19.1245 31.5707 20.7351 33.5508 20.7351C35.5309 20.7351 37.0734 19.1919 37.1389 17.27L33.1901 8.99976Z" fill="white"/>
</g>
<defs>
<clipPath id="clip0_2033_1052">
<rect width="32.137" height="24.1027" fill="white" transform="translate(5 9)"/>
</clipPath>
</defs>
</svg>
