<svg width="42" height="42" viewBox="0 0 42 42" fill="none" xmlns="http://www.w3.org/2000/svg">
<g clip-path="url(#clip0_2033_1053)">
<path d="M39.8232 23.9575C39.8232 23.9327 39.8232 23.9079 39.8232 23.8859C39.8151 22.4613 39.5843 21.0615 39.139 19.7251C38.7751 18.6367 38.2727 17.6034 37.6428 16.6473L37.6563 16.639L37.2735 16.1155C36.6842 15.3109 36.0054 14.5697 35.2505 13.9194C34.4929 13.2663 33.6647 12.6987 32.7822 12.2385C32.7252 12.2082 32.6709 12.1807 32.6138 12.1504C32.5568 12.1228 32.4998 12.0925 32.4428 12.0649C32.4156 12.0512 32.3857 12.0374 32.3586 12.0236C31.8155 11.7646 31.2561 11.5442 30.6859 11.3651C30.4442 11.2879 30.2026 11.2218 29.9582 11.1584C29.7708 11.1116 29.5807 11.0675 29.3906 11.0289C29.3906 11.0289 29.3906 11.0289 29.3879 11.0289H29.3825C28.5624 10.8636 27.7234 10.7781 26.8816 10.7754C26.8517 10.7754 26.8219 10.7754 26.792 10.7754C26.6997 10.7754 26.6046 10.7754 26.5123 10.7781C26.2462 10.7837 25.9801 10.8029 25.7167 10.825L22.7325 13.8532C22.7026 13.9056 22.6727 13.9607 22.6429 14.0158L23.0067 15.7159C23.3597 14.859 23.767 14.115 24.2151 13.5116C24.6876 12.8751 25.4099 12.1338 26.3087 11.9134V17.6999C25.3148 17.6861 24.3373 17.6255 23.3896 17.5263L23.6258 18.6312C24.5002 18.7139 25.399 18.7635 26.3087 18.7773V23.3486H24.6333L24.8613 24.4232H26.3087V29.1075C25.5619 29.1185 24.826 29.1543 24.101 29.2122C23.7779 29.3913 23.4439 29.485 23.1018 29.485C22.8682 29.485 22.6673 29.4409 22.4935 29.3803C22.3767 29.3941 22.26 29.4078 22.1459 29.4244C22.1269 29.3445 22.1106 29.2618 22.0943 29.1791C21.8771 29.0331 21.7386 28.8733 21.6816 28.7989L21.6463 28.752L21.6137 28.7024L20.7041 27.2724C20.8018 28.0714 20.9322 28.8512 21.0978 29.598C20.5031 29.7054 19.9302 29.8322 19.3844 29.9755C18.4937 30.2069 17.69 30.4797 16.9894 30.7883C15.7131 28.9008 15.0044 26.7185 14.9175 24.426H18.8929L18.2113 23.3513H14.923C14.9528 22.7534 15.0261 22.1637 15.1402 21.5823L13.8965 22.814C13.8667 23.1695 13.8504 23.5249 13.8477 23.8831C13.8477 23.9079 13.8477 23.93 13.8477 23.9548C13.8477 25.3876 14.073 26.7984 14.5184 28.1431C14.8822 29.2398 15.3846 30.2813 16.0173 31.2457L16.0037 31.254L16.3838 31.7775C16.3974 31.7941 16.411 31.8134 16.4246 31.8299C16.449 31.863 16.4735 31.896 16.4979 31.9263C16.506 31.9374 16.5142 31.9484 16.5223 31.9567C16.5522 31.9952 16.5821 32.0366 16.6119 32.0751C16.6174 32.0834 16.6228 32.0889 16.6309 32.0972C16.6635 32.1385 16.6961 32.1798 16.7287 32.2212C16.7341 32.2267 16.7368 32.2322 16.7423 32.2377C16.7776 32.2818 16.8102 32.3231 16.8455 32.3672C16.8509 32.3727 16.8563 32.381 16.8618 32.3865C16.8971 32.4278 16.9296 32.4692 16.9649 32.5105C16.9704 32.516 16.9758 32.5243 16.9812 32.5298C17.0165 32.5711 17.0518 32.6125 17.0871 32.6538C17.0926 32.6593 17.098 32.6676 17.1061 32.6731C17.1414 32.7144 17.1767 32.753 17.212 32.7943C17.2175 32.8026 17.2256 32.8081 17.2311 32.8164C17.2664 32.8549 17.3017 32.8963 17.337 32.9348C17.3424 32.9431 17.3505 32.9486 17.356 32.9569C17.3913 32.9955 17.4266 33.034 17.4646 33.0726C17.4727 33.0809 17.4782 33.0864 17.4863 33.0947C17.5216 33.1332 17.5596 33.1691 17.5949 33.2076C17.6031 33.2159 17.6085 33.2214 17.6166 33.2297C17.6519 33.2683 17.69 33.3041 17.7253 33.3399C17.7334 33.3482 17.7415 33.3537 17.747 33.3619C17.785 33.3978 17.8203 33.4336 17.8583 33.4722C17.8665 33.4804 17.8746 33.4887 17.8828 33.4942C17.9208 33.53 17.9561 33.5658 17.9941 33.6017C18.0022 33.6099 18.0104 33.6182 18.0185 33.6237C18.0565 33.6595 18.0918 33.6926 18.1299 33.7284C18.138 33.7367 18.1461 33.7449 18.157 33.7532C18.195 33.7863 18.233 33.8221 18.2711 33.8552C18.2792 33.8634 18.2901 33.8717 18.2982 33.8772C18.3335 33.9103 18.3715 33.9406 18.4068 33.9737C18.4068 33.9737 18.4095 33.9737 18.4123 33.9764C18.4204 33.9847 18.4313 33.9929 18.4394 34.0012C18.4774 34.0343 18.5154 34.0673 18.5535 34.0976C18.5643 34.1059 18.5752 34.1169 18.586 34.1252C18.6241 34.1555 18.6594 34.1858 18.6974 34.2161C18.7109 34.2272 18.7218 34.2354 18.7354 34.2464C18.7707 34.2768 18.806 34.3043 18.844 34.3346C18.8576 34.3456 18.8739 34.3567 18.8875 34.3677C18.9228 34.3952 18.9581 34.4228 18.9934 34.4503C19.0096 34.4614 19.0259 34.4751 19.0395 34.4862C19.0748 34.511 19.1074 34.5385 19.1427 34.5633C19.159 34.5771 19.178 34.5881 19.1943 34.6019C19.2269 34.6267 19.2622 34.6515 19.2948 34.6763C19.3138 34.6901 19.3301 34.7011 19.3491 34.7149C19.3817 34.7397 19.4142 34.7617 19.4468 34.7838C19.4658 34.7975 19.4848 34.8113 19.5038 34.8223C19.5364 34.8444 19.569 34.8664 19.6016 34.8885C19.6206 34.9022 19.6423 34.916 19.6613 34.9298C19.6939 34.9518 19.7238 34.9739 19.7564 34.9932C19.7781 35.0069 19.7998 35.0207 19.8188 35.0345C19.8514 35.0538 19.8813 35.0758 19.9139 35.0951C19.9356 35.1089 19.9573 35.1227 19.979 35.1365C20.0089 35.1557 20.0415 35.175 20.0714 35.1943C20.0931 35.2081 20.1175 35.2219 20.1393 35.2357C20.1691 35.2549 20.199 35.2715 20.2289 35.2908C20.2533 35.3045 20.2777 35.3183 20.2995 35.3321C20.3293 35.3486 20.3592 35.3679 20.3891 35.3844C20.4135 35.3982 20.4379 35.412 20.4624 35.4258C20.4923 35.4423 20.5221 35.4588 20.552 35.4754C20.5764 35.4892 20.6036 35.5029 20.628 35.5167C20.6579 35.5332 20.685 35.5498 20.7149 35.5663C20.7421 35.5801 20.7665 35.5939 20.7937 35.6076C20.8208 35.6214 20.848 35.6352 20.8724 35.649C20.8751 35.649 20.8778 35.6517 20.8806 35.6545C20.8806 35.6545 20.8806 35.6545 20.8833 35.6545C20.8941 35.66 20.9077 35.6655 20.9186 35.6738C20.9322 35.682 20.9457 35.6875 20.962 35.6958C20.9756 35.7041 20.9919 35.7096 21.0055 35.7179C21.019 35.7234 21.0326 35.7316 21.0462 35.7371C21.0625 35.7454 21.0761 35.7537 21.0924 35.7592C21.1059 35.7647 21.1195 35.773 21.1304 35.7785C21.1467 35.7867 21.163 35.795 21.1793 35.8033C21.1928 35.8088 21.2037 35.8143 21.2173 35.8226C21.2336 35.8308 21.2499 35.8391 21.2661 35.8474C21.277 35.8529 21.2906 35.8584 21.3014 35.8639C21.3177 35.8722 21.3367 35.8804 21.353 35.8887C21.3639 35.8942 21.3775 35.8997 21.3883 35.9052C21.4046 35.9135 21.4236 35.9218 21.4399 35.93C21.4508 35.9355 21.4617 35.9411 21.4725 35.9466C21.4915 35.9548 21.5078 35.9631 21.5268 35.9714C21.5377 35.9769 21.5485 35.9824 21.5594 35.9851C21.5784 35.9934 21.5974 36.0017 21.6137 36.0099C21.6246 36.0154 21.6354 36.0182 21.6463 36.0237C21.6653 36.032 21.6843 36.0402 21.7033 36.0485C21.7142 36.054 21.7223 36.0568 21.7332 36.0623C21.7522 36.0706 21.7712 36.0788 21.7902 36.0871C21.8011 36.0926 21.8092 36.0954 21.8201 36.1009C21.8391 36.1091 21.8581 36.1174 21.8798 36.1257C21.8907 36.1284 21.8988 36.1339 21.9097 36.1367C21.9287 36.145 21.9504 36.1532 21.9694 36.1615C21.9776 36.1642 21.9884 36.1698 21.9966 36.1725C22.0156 36.1808 22.0373 36.189 22.0563 36.1973C22.0645 36.2001 22.0753 36.2056 22.0835 36.2083C22.1052 36.2166 22.1242 36.2249 22.1459 36.2331C22.1541 36.2359 22.1622 36.2414 22.1731 36.2442C22.1948 36.2524 22.2138 36.2607 22.2355 36.269C22.2437 36.2717 22.2518 36.2745 22.26 36.28C22.2817 36.2882 22.3034 36.2965 22.3252 36.3048C22.3333 36.3075 22.3414 36.3103 22.3496 36.313C22.3713 36.3213 22.393 36.3296 22.4148 36.3378C22.4229 36.3406 22.4311 36.3434 22.4392 36.3461C22.4609 36.3544 22.4826 36.3626 22.5044 36.3709C22.5125 36.3737 22.5207 36.3764 22.5288 36.3792C22.5505 36.3874 22.5723 36.3957 22.5967 36.404C22.6048 36.404 22.613 36.4095 22.6184 36.4122C22.6401 36.4205 22.6646 36.4288 22.6863 36.4343C22.6945 36.4343 22.6999 36.4398 22.708 36.4425C22.7298 36.4508 22.7542 36.4591 22.7759 36.4646C22.7841 36.4646 22.7895 36.4701 22.7976 36.4729C22.8221 36.4811 22.8438 36.4894 22.8682 36.4949C22.8764 36.4949 22.8818 36.5004 22.89 36.5004C22.9144 36.5087 22.9361 36.5142 22.9606 36.5225C22.966 36.5225 22.9741 36.528 22.9796 36.528C23.004 36.5362 23.0284 36.5417 23.0529 36.55C23.0583 36.55 23.0637 36.5528 23.0719 36.5555C23.0963 36.5638 23.1208 36.5693 23.1452 36.5776C23.1506 36.5776 23.1561 36.5803 23.1615 36.5831C23.1859 36.5913 23.2104 36.5969 23.2375 36.6051C23.243 36.6051 23.2484 36.6079 23.2538 36.6106C23.2783 36.6189 23.3054 36.6244 23.3299 36.6327C23.3353 36.6327 23.3407 36.6327 23.3434 36.6354C23.3706 36.6437 23.395 36.6492 23.4222 36.6575C23.4276 36.6575 23.4303 36.6575 23.4358 36.6602C23.4629 36.6685 23.4901 36.674 23.5145 36.6823C23.5172 36.6823 23.5226 36.6823 23.5254 36.685C23.5525 36.6933 23.5797 36.6988 23.6068 36.7071C23.6095 36.7071 23.6123 36.7071 23.615 36.7071C23.6421 36.7153 23.672 36.7208 23.6992 36.7291H23.7046C23.71 36.7291 23.7182 36.7319 23.7236 36.7346C23.7453 36.7401 23.7698 36.7456 23.7915 36.7512H23.7969C23.8268 36.7594 23.8566 36.7649 23.8865 36.7732C23.8865 36.7732 23.8865 36.7732 23.8892 36.7732C23.9191 36.7815 23.9517 36.787 23.9816 36.7952C24.9102 37.0047 25.866 37.1121 26.8273 37.1121C27.7886 37.1121 28.7444 37.0047 29.673 36.7952C29.7056 36.787 29.7355 36.7815 29.7681 36.7732C29.798 36.7649 29.8305 36.7594 29.8604 36.7512C29.8604 36.7512 29.8631 36.7512 29.8658 36.7512C29.8903 36.7456 29.912 36.7401 29.9364 36.7346C29.9419 36.7346 29.95 36.7319 29.9554 36.7291C29.9554 36.7291 29.9582 36.7291 29.9609 36.7291C29.9907 36.7208 30.0179 36.7153 30.0478 36.7071C30.0478 36.7071 30.0532 36.7071 30.0559 36.7071C30.0831 36.6988 30.1129 36.6933 30.1401 36.685C30.1428 36.685 30.1455 36.685 30.151 36.685C30.1781 36.6768 30.2053 36.6713 30.2324 36.663C30.2351 36.663 30.2406 36.663 30.2433 36.6602C30.2704 36.652 30.2976 36.6465 30.322 36.6382C30.3275 36.6382 30.3302 36.6382 30.3356 36.6354C30.3628 36.6272 30.3872 36.6217 30.4144 36.6134C30.4198 36.6134 30.4252 36.6106 30.4279 36.6079C30.4524 36.5996 30.4795 36.5941 30.504 36.5858C30.5094 36.5858 30.5148 36.5831 30.5203 36.5803C30.5447 36.5721 30.5691 36.5665 30.5936 36.5583C30.599 36.5583 30.6044 36.5555 30.6099 36.5528C30.6343 36.5445 30.6587 36.539 30.6832 36.5307C30.6886 36.5307 30.6968 36.528 30.7022 36.5252C30.7266 36.5169 30.7511 36.5087 30.7728 36.5032C30.7782 36.5032 30.7864 36.4977 30.7918 36.4977C30.8162 36.4894 30.838 36.4811 30.8624 36.4756C30.8705 36.4756 30.876 36.4701 30.8841 36.4701C30.9086 36.4618 30.9303 36.4536 30.9547 36.4481C30.9629 36.4481 30.9683 36.4425 30.9764 36.4398C30.9982 36.4315 31.0226 36.4233 31.0443 36.415C31.0525 36.415 31.0579 36.4095 31.0661 36.4067C31.0878 36.3985 31.1122 36.3902 31.1339 36.3819C31.1421 36.3819 31.1502 36.3764 31.1557 36.3737C31.1774 36.3654 31.1991 36.3571 31.2235 36.3489C31.2317 36.3461 31.2398 36.3433 31.248 36.3406C31.2697 36.3323 31.2914 36.3241 31.3132 36.3158C31.3213 36.313 31.3294 36.3103 31.3376 36.3075C31.3593 36.2993 31.381 36.291 31.4028 36.2827C31.4109 36.28 31.4191 36.2772 31.4272 36.2745C31.4489 36.2662 31.4706 36.2579 31.4897 36.2497C31.4978 36.2469 31.5059 36.2442 31.5141 36.2386C31.5358 36.2304 31.5548 36.2221 31.5765 36.2138C31.5847 36.2111 31.5928 36.2056 31.6037 36.2028C31.6254 36.1946 31.6444 36.1863 31.6662 36.178C31.6743 36.1753 31.6852 36.1698 31.6933 36.167C31.715 36.1587 31.734 36.1505 31.7558 36.1422C31.7639 36.1394 31.7748 36.1339 31.7829 36.1312C31.8019 36.1229 31.8236 36.1146 31.8427 36.1064C31.8508 36.1036 31.8617 36.0981 31.8698 36.0954C31.8888 36.0871 31.9105 36.0788 31.9295 36.0706C31.9377 36.0678 31.9486 36.0623 31.9567 36.0595C31.9757 36.0513 31.9947 36.043 32.0164 36.0347C32.0273 36.0292 32.0355 36.0265 32.0463 36.021C32.0653 36.0127 32.0843 36.0044 32.1033 35.9962C32.1142 35.9906 32.1223 35.9879 32.1332 35.9824C32.1522 35.9741 32.1712 35.9659 32.1902 35.9576C32.2011 35.9521 32.2092 35.9493 32.2201 35.9438C32.2391 35.9355 32.2581 35.9273 32.2771 35.919C32.288 35.9135 32.2988 35.9107 32.307 35.9052C32.326 35.897 32.345 35.8887 32.3613 35.8777C32.3722 35.8722 32.383 35.8667 32.3912 35.8639C32.4102 35.8556 32.4265 35.8474 32.4455 35.8363C32.4563 35.8308 32.4672 35.8253 32.4781 35.8198C32.4971 35.8115 32.5134 35.8033 32.5324 35.7923C32.5432 35.7867 32.5541 35.7812 32.565 35.7757C32.5812 35.7675 32.6003 35.7592 32.6165 35.7482C32.6274 35.7427 32.6383 35.7371 32.6491 35.7316C32.6654 35.7234 32.6844 35.7151 32.7007 35.7068C32.7116 35.7013 32.7224 35.6958 32.736 35.6903C32.7496 35.682 32.7659 35.6765 32.7795 35.6683C32.7795 35.6683 32.7822 35.6683 32.7849 35.6683C32.7849 35.6683 32.7903 35.6683 32.7931 35.6655C32.8175 35.6517 32.8419 35.638 32.8664 35.6269C32.8935 35.6104 32.9234 35.5966 32.9505 35.5801C32.9777 35.5636 33.0076 35.5498 33.0347 35.5332C33.0619 35.5195 33.0863 35.5029 33.1135 35.4892C33.1433 35.4726 33.1732 35.4561 33.2004 35.4396C33.2248 35.4258 33.2492 35.412 33.2737 35.3982C33.3035 35.3817 33.3334 35.3624 33.366 35.3431C33.3904 35.3293 33.4122 35.3156 33.4366 35.3018C33.4665 35.2825 33.4991 35.2632 33.5289 35.2439C33.5506 35.2301 33.5724 35.2164 33.5968 35.2026C33.6294 35.1833 33.6593 35.164 33.6918 35.142C33.7136 35.1282 33.7353 35.1144 33.7543 35.1006C33.7869 35.0813 33.8195 35.0593 33.8493 35.0373C33.8711 35.0235 33.8901 35.0097 33.9118 34.9987C33.9444 34.9766 33.977 34.9546 34.0068 34.9353C34.0258 34.9215 34.0476 34.9078 34.0666 34.8967C34.0992 34.8747 34.1317 34.8526 34.1643 34.8306C34.1833 34.8168 34.2023 34.803 34.2214 34.792C34.2539 34.77 34.2865 34.7452 34.3191 34.7231C34.3381 34.7094 34.3571 34.6956 34.3734 34.6846C34.406 34.6598 34.4386 34.6377 34.4712 34.6129C34.4875 34.5991 34.5065 34.5881 34.5255 34.5743C34.5581 34.5495 34.5906 34.5247 34.6259 34.4999C34.6422 34.4862 34.6585 34.4751 34.6775 34.4614C34.7101 34.4366 34.7454 34.409 34.778 34.3815C34.7943 34.3704 34.8106 34.3567 34.8242 34.3456C34.8595 34.3181 34.8921 34.2905 34.9274 34.263C34.9409 34.252 34.9572 34.2409 34.9708 34.2272C35.0061 34.1968 35.0414 34.1693 35.0767 34.139C35.0903 34.128 35.1039 34.1169 35.1147 34.1059C35.1527 34.0756 35.188 34.0425 35.2261 34.0122C35.2369 34.004 35.2478 33.9957 35.2559 33.9874C35.2559 33.9874 35.2586 33.9874 35.2614 33.9847C35.2967 33.9544 35.3347 33.9213 35.37 33.8882C35.3781 33.88 35.389 33.8717 35.3971 33.8634C35.4351 33.8304 35.4732 33.7945 35.5085 33.7615C35.5166 33.7532 35.5247 33.7449 35.5356 33.7367C35.5736 33.7009 35.6116 33.6678 35.6497 33.632C35.6578 33.6237 35.666 33.6182 35.6741 33.6099C35.7121 33.5741 35.7501 33.5383 35.7881 33.5025C35.7963 33.4942 35.8044 33.4887 35.8099 33.4804C35.8479 33.4446 35.8859 33.406 35.9212 33.3702C35.9293 33.3619 35.9348 33.3564 35.9429 33.3482C35.9809 33.3096 36.019 33.2738 36.0543 33.2352C36.0597 33.2297 36.0678 33.2214 36.0733 33.2159C36.1113 33.1773 36.1493 33.1387 36.1873 33.0974C36.1927 33.0919 36.1982 33.0864 36.2036 33.0809C36.2416 33.0423 36.2796 33.001 36.3149 32.9596C36.3204 32.9541 36.3258 32.9486 36.3312 32.9431C36.3692 32.9018 36.4045 32.8604 36.4426 32.8191C36.448 32.8136 36.4534 32.8081 36.4561 32.8026C36.4941 32.7612 36.5322 32.7172 36.5702 32.6731C36.5729 32.6676 36.5783 32.6648 36.581 32.6593C36.6191 32.6152 36.6571 32.5711 36.6924 32.527C36.6951 32.5243 36.6978 32.5188 36.7032 32.516C36.7412 32.4692 36.7793 32.4251 36.8173 32.3782C36.8173 32.3782 36.82 32.3727 36.8227 32.3727C36.8607 32.3286 36.896 32.2818 36.934 32.235C36.934 32.2322 36.9395 32.2294 36.9422 32.2267C36.9802 32.1798 37.0182 32.133 37.0535 32.0834C37.0535 32.0834 37.0535 32.0806 37.0562 32.0779C37.0915 32.0338 37.1241 31.9897 37.1567 31.9456C37.1594 31.9401 37.1649 31.9346 37.1676 31.9291C37.1947 31.8933 37.2192 31.8602 37.2436 31.8244C37.2545 31.8079 37.268 31.7941 37.2789 31.7775L37.6591 31.254L37.6455 31.2457C38.2782 30.2813 38.7805 29.2398 39.1444 28.1431C39.5897 26.7957 39.8151 25.3876 39.8151 23.9548L39.8232 23.9575ZM23.8784 35.6793C23.8431 35.671 23.8078 35.66 23.7725 35.6517C23.7535 35.6462 23.7345 35.6407 23.7154 35.6352C23.6801 35.6269 23.6476 35.6159 23.6123 35.6076C23.5933 35.6021 23.5715 35.5966 23.5525 35.5911C23.5199 35.5801 23.4846 35.5718 23.452 35.5608C23.4303 35.5553 23.4113 35.547 23.3896 35.5415C23.3624 35.5332 23.338 35.525 23.3108 35.5167C23.2837 35.5084 23.2565 35.5002 23.2294 35.4892C23.2077 35.4809 23.1859 35.4754 23.1615 35.4671C23.1316 35.4561 23.099 35.4478 23.0692 35.4368C23.0502 35.4313 23.0284 35.423 23.0094 35.4148C22.9769 35.4037 22.9443 35.3927 22.9117 35.3789C22.8927 35.3734 22.8737 35.3652 22.8547 35.3596C22.8221 35.3486 22.7868 35.3349 22.7542 35.3238C22.7352 35.3183 22.7189 35.3101 22.6999 35.3045C22.6646 35.2908 22.632 35.2797 22.5967 35.266C22.5777 35.2577 22.5614 35.2522 22.5424 35.2439C22.5098 35.2301 22.4772 35.2191 22.4446 35.2053C22.4256 35.1971 22.4066 35.1888 22.3876 35.1805C22.3632 35.1695 22.3387 35.1613 22.3143 35.1502C22.298 35.1447 22.2844 35.1365 22.2681 35.1309C22.2301 35.1144 22.1948 35.1006 22.1568 35.0841C22.1432 35.0786 22.1324 35.0731 22.1188 35.0676C22.0781 35.051 22.04 35.0317 22.002 35.0152C21.9912 35.0097 21.9776 35.0042 21.9667 34.9987C21.926 34.9794 21.888 34.9629 21.8472 34.9436C21.8364 34.9381 21.8255 34.9326 21.8147 34.927C21.7739 34.9078 21.7359 34.8885 21.6952 34.8692C21.6843 34.8637 21.6735 34.8582 21.6626 34.8526C21.6219 34.8334 21.5811 34.8141 21.5431 34.792C21.5323 34.7865 21.5241 34.781 21.5132 34.7755C21.4725 34.7534 21.4318 34.7342 21.3911 34.7121C21.3829 34.7066 21.372 34.7011 21.3639 34.6983C21.3205 34.6763 21.2797 34.6543 21.2363 34.6322C21.2281 34.6295 21.22 34.6239 21.2146 34.6212C21.1385 34.5799 21.0652 34.5385 20.9919 34.4972C20.9892 34.4972 20.9837 34.4944 20.981 34.4917C20.9349 34.4669 20.8914 34.4393 20.8453 34.4145C20.8371 34.409 20.8263 34.4035 20.8181 34.398C20.7801 34.3759 20.7394 34.3511 20.7013 34.3291C20.6905 34.3236 20.6796 34.3153 20.6688 34.3098C20.6307 34.2878 20.5954 34.263 20.5574 34.2409C20.5466 34.2327 20.533 34.2272 20.5221 34.2189C20.4868 34.1968 20.4515 34.1748 20.4162 34.15C20.4026 34.1417 20.3918 34.1335 20.3782 34.1252C20.3429 34.1032 20.3103 34.0811 20.275 34.0591C20.2614 34.0508 20.2479 34.0425 20.2343 34.0315C20.2017 34.0095 20.1691 33.9874 20.1393 33.9654C20.1257 33.9544 20.1094 33.9461 20.0958 33.9351C20.0687 33.9158 20.0415 33.8965 20.0143 33.8772C19.9953 33.8634 19.9763 33.8497 19.9573 33.8386C19.9383 33.8249 19.9166 33.8111 19.8976 33.7945C19.8731 33.7753 19.846 33.756 19.8216 33.7394C19.8025 33.7257 19.7835 33.7119 19.7645 33.6953C19.7374 33.6761 19.7129 33.6568 19.6858 33.6375C19.6668 33.6237 19.6505 33.6099 19.6315 33.5962C19.6097 33.5796 19.5853 33.5603 19.5636 33.5438C19.5419 33.5273 19.5229 33.5107 19.5011 33.4942C19.4794 33.4777 19.4577 33.4611 19.4387 33.4446C19.417 33.4281 19.3952 33.4088 19.3735 33.3922C19.3518 33.3757 19.3301 33.3564 19.3083 33.3399C19.2866 33.3234 19.2676 33.3068 19.2459 33.2903C19.2242 33.271 19.1997 33.2517 19.178 33.2324C19.1617 33.2187 19.1427 33.2021 19.1264 33.1883C19.102 33.1663 19.0748 33.1443 19.0504 33.1222C19.0368 33.1112 19.0232 33.1002 19.0124 33.0891C18.9825 33.0643 18.9526 33.0368 18.9255 33.012C18.9119 33.001 18.901 32.9899 18.8875 32.9789C18.8576 32.9514 18.8277 32.9266 18.8006 32.899C18.7897 32.888 18.7761 32.877 18.7653 32.866C18.7354 32.8384 18.7055 32.8108 18.6756 32.7833C18.6648 32.7723 18.6539 32.764 18.6431 32.753C18.6132 32.7254 18.5833 32.6951 18.5535 32.6648C18.5426 32.6565 18.5344 32.6455 18.5263 32.6373C18.4964 32.6069 18.4638 32.5766 18.434 32.5463C18.4258 32.5381 18.4177 32.5298 18.4095 32.5215C18.377 32.4885 18.3444 32.4554 18.3145 32.4251C18.3091 32.4196 18.3036 32.4141 18.2982 32.4058C18.2656 32.3727 18.2358 32.3397 18.2032 32.3066C18.1977 32.3011 18.195 32.2956 18.1896 32.2928C18.157 32.257 18.1244 32.2239 18.0918 32.1881C18.0864 32.1826 18.081 32.1771 18.0783 32.1716C18.0457 32.1358 18.0131 32.0999 17.9805 32.0641C17.9751 32.0586 17.9696 32.0531 17.9642 32.0448C17.9316 32.009 17.9018 31.9732 17.8692 31.9374C17.8637 31.9319 17.8583 31.9236 17.8529 31.9181C17.823 31.8823 17.7904 31.8464 17.7606 31.8106C17.7551 31.8051 17.7497 31.7968 17.7443 31.7913C17.7144 31.7555 17.6818 31.7169 17.6519 31.6811C17.6519 31.6783 17.6465 31.6756 17.6438 31.6728C18.6784 31.2485 19.9465 30.8986 21.3558 30.645C21.85 32.4196 22.537 33.9296 23.3597 35.0373C23.5335 35.2715 23.7127 35.4892 23.8974 35.6848C23.8919 35.6848 23.8838 35.682 23.8784 35.6793ZM26.3059 35.9962C25.4044 35.7757 24.6821 35.029 24.2069 34.3897C23.4792 33.4115 22.8655 32.0669 22.4093 30.4742C22.6048 30.4467 22.8031 30.4219 23.0013 30.3971C24.0657 30.2703 25.1763 30.1987 26.3059 30.1821V35.9934V35.9962ZM38.7479 23.3513H33.1623C33.1433 22.4723 33.0836 21.6016 32.9858 20.7557C32.8854 19.907 32.7469 19.0804 32.5704 18.2923C33.1623 18.1848 33.7353 18.0581 34.2784 17.9176C35.169 17.6861 35.9701 17.4133 36.6734 17.1074C37.9306 18.9591 38.642 21.1001 38.7507 23.3513H38.7479ZM29.7952 12.2248C29.7952 12.2248 29.8007 12.2248 29.8061 12.2248C29.855 12.2358 29.9011 12.2496 29.95 12.2633C29.9554 12.2633 29.9609 12.2661 29.9663 12.2689C30.0125 12.2826 30.0586 12.2937 30.1048 12.3074C30.1102 12.3074 30.1184 12.3102 30.1238 12.3129C30.17 12.3267 30.2161 12.3405 30.2596 12.3543C30.2677 12.3543 30.2732 12.357 30.2813 12.3598C30.3275 12.3736 30.3709 12.3873 30.4171 12.4011C30.4225 12.4011 30.4306 12.4066 30.4361 12.4066C30.4822 12.4204 30.5284 12.4369 30.5718 12.4507C30.5773 12.4507 30.5827 12.4535 30.5881 12.4562C30.6343 12.4728 30.6805 12.4865 30.7266 12.5031C30.7321 12.5031 30.7348 12.5058 30.7402 12.5086C30.7891 12.5251 30.8352 12.5416 30.8841 12.5582C30.8841 12.5582 30.8841 12.5582 30.8868 12.5582C30.9357 12.5747 30.9846 12.594 31.0335 12.6133C31.0335 12.6133 31.0335 12.6133 31.0362 12.6133C31.0823 12.6326 31.1312 12.6491 31.1774 12.6684C31.1801 12.6684 31.1855 12.6712 31.1882 12.6739C31.2344 12.6932 31.2779 12.7097 31.324 12.729C31.3294 12.729 31.3349 12.7345 31.3403 12.7345C31.3838 12.7538 31.4299 12.7703 31.4734 12.7896C31.4788 12.7896 31.4869 12.7951 31.4924 12.7979C31.5358 12.8172 31.5793 12.8365 31.6227 12.8558C31.6281 12.8585 31.6363 12.8613 31.6417 12.864C31.6852 12.8833 31.7286 12.9026 31.7721 12.9219C31.7775 12.9219 31.7829 12.9274 31.7883 12.9302C31.8318 12.9495 31.8752 12.9715 31.9187 12.9908C31.9241 12.9908 31.9268 12.9963 31.9323 12.9963C31.9784 13.0183 32.0219 13.0404 32.0653 13.0624C32.0653 13.0624 32.0707 13.0624 32.0735 13.0652C32.1658 13.112 32.2581 13.1589 32.3504 13.2085C32.3504 13.2085 32.3559 13.2085 32.3586 13.2112C32.402 13.2333 32.4455 13.2581 32.4889 13.2829C32.4944 13.2829 32.4971 13.2884 32.5025 13.2911C32.5459 13.3132 32.5867 13.338 32.6301 13.3628C32.6356 13.3655 32.641 13.3683 32.6464 13.371C32.6871 13.3958 32.7306 13.4179 32.7713 13.4427C32.7768 13.4454 32.7822 13.4509 32.7903 13.4537C32.8311 13.4785 32.8718 13.5033 32.9125 13.5253C32.918 13.5281 32.9234 13.5336 32.9288 13.5364C32.9696 13.5612 33.0103 13.586 33.051 13.6108C33.0564 13.6135 33.0619 13.6163 33.0673 13.619C33.108 13.6438 33.1515 13.6714 33.1922 13.6989C33.1949 13.6989 33.2004 13.7045 33.2031 13.7072C33.2465 13.7348 33.2873 13.7623 33.3307 13.7899C33.3307 13.7899 33.3307 13.7899 33.3334 13.7899C33.3769 13.8174 33.4203 13.8477 33.4638 13.878C33.4638 13.878 33.4638 13.878 33.4665 13.878C33.5099 13.9056 33.5506 13.9359 33.5914 13.9662C33.5941 13.9662 33.5995 13.9717 33.6022 13.9745C33.643 14.002 33.6837 14.0324 33.7217 14.0599C33.7271 14.0627 33.7326 14.0682 33.7353 14.0709C33.7733 14.0985 33.814 14.1288 33.8521 14.1563C33.8575 14.1591 33.8629 14.1646 33.8683 14.1674C33.9064 14.1949 33.9444 14.2252 33.9824 14.2528C33.9878 14.2583 33.9933 14.2611 33.9987 14.2666C34.0367 14.2969 34.0747 14.3244 34.1127 14.3547C34.1182 14.3603 34.1236 14.363 34.129 14.3685C34.167 14.3988 34.2051 14.4291 34.2431 14.4594C34.2485 14.4622 34.2512 14.4677 34.2567 14.4705C34.2947 14.5008 34.3327 14.5338 34.3734 14.5642C34.3734 14.5642 34.3788 14.5697 34.3816 14.5697C34.463 14.6358 34.5418 14.7047 34.6205 14.7736C34.6205 14.7736 34.6259 14.7791 34.6287 14.7791C34.6667 14.8121 34.7047 14.8452 34.74 14.8783C34.7454 14.881 34.7481 14.8865 34.7536 14.8893C34.7889 14.9224 34.8269 14.9554 34.8622 14.9885L34.8785 15.0023C34.9138 15.0353 34.9491 15.0684 34.9844 15.1015C34.9898 15.107 34.9952 15.1125 35.0007 15.118C35.036 15.1511 35.0686 15.1841 35.1039 15.2172C35.1093 15.2227 35.1147 15.2282 35.1202 15.2337C35.1555 15.2668 35.188 15.3026 35.2233 15.3357C35.2288 15.3412 35.2315 15.344 35.2369 15.3495C35.2722 15.3853 35.3075 15.4211 35.3401 15.4569C35.3428 15.4597 35.3482 15.4652 35.351 15.4679C35.3863 15.5038 35.4216 15.5423 35.4569 15.5809C35.4569 15.5809 35.4596 15.5837 35.4623 15.5864C35.4976 15.625 35.5329 15.6636 35.5682 15.7022C35.5682 15.7022 35.5682 15.7049 35.5709 15.7077C35.6062 15.7462 35.6415 15.7848 35.6741 15.8234C35.6768 15.8262 35.6795 15.8317 35.685 15.8344C35.7175 15.873 35.7501 15.9088 35.7827 15.9474C35.7881 15.9529 35.7909 15.9584 35.7963 15.9639C35.8289 15.9998 35.8587 16.0383 35.8913 16.0769C35.8968 16.0824 35.9022 16.0879 35.9049 16.0934C35.9375 16.132 35.9674 16.1678 35.9972 16.2064C35.9972 16.2092 36.0027 16.2119 36.0054 16.2147C34.9735 16.6363 33.7054 16.9862 32.3016 17.2397C31.8074 15.4707 31.1204 13.9662 30.2976 12.8613C30.1211 12.6243 29.9392 12.4039 29.7518 12.2055C29.7654 12.2082 29.7762 12.211 29.7898 12.2137L29.7952 12.2248ZM27.365 11.9189C28.2638 12.1393 28.986 12.8806 29.4585 13.5171C30.1835 14.4925 30.7972 15.8289 31.2534 17.4161C31.0579 17.4436 30.8624 17.4684 30.6642 17.4905C29.5997 17.6172 28.4918 17.6889 27.365 17.7054V11.9189ZM27.365 18.78C28.5326 18.7635 29.6812 18.6891 30.7864 18.5568C31.0335 18.5265 31.2806 18.4962 31.5222 18.4604C31.8671 19.9759 32.068 21.6485 32.1061 23.3513H27.365V18.78ZM27.365 24.426H32.1088C32.0789 26.1647 31.8807 27.8813 31.5277 29.4299C31.286 29.3941 31.0389 29.3638 30.7918 29.3334C29.6866 29.2039 28.5353 29.1295 27.365 29.1103V24.426ZM29.464 34.3925C28.9888 35.0317 28.2665 35.7757 27.365 35.9989V30.1876C28.4946 30.2042 29.6024 30.2758 30.6696 30.4026C30.8678 30.4274 31.0661 30.4522 31.2616 30.4797C30.8081 32.0724 30.1917 33.4143 29.464 34.3952V34.3925ZM36.0162 31.6839C35.9864 31.7197 35.9565 31.7583 35.9239 31.7941C35.9185 31.7996 35.9131 31.8079 35.9076 31.8134C35.8778 31.8492 35.8452 31.885 35.8153 31.9208C35.8099 31.9263 35.8044 31.9346 35.799 31.9401C35.7664 31.9759 35.7366 32.0118 35.704 32.0476C35.6985 32.0531 35.6931 32.0586 35.6877 32.0641C35.6551 32.0999 35.6225 32.1358 35.5899 32.1716C35.5845 32.1771 35.5818 32.1826 35.5763 32.1881C35.5438 32.2239 35.5112 32.257 35.4786 32.2928C35.4732 32.2983 35.4704 32.3011 35.465 32.3066C35.4324 32.3397 35.4026 32.3727 35.37 32.4058C35.3645 32.4113 35.3591 32.4168 35.3537 32.4223C35.3211 32.4554 35.2885 32.4885 35.2586 32.5215C35.2505 32.5298 35.2423 32.5381 35.2342 32.5436C35.2043 32.5739 35.1717 32.6042 35.1419 32.6345C35.1337 32.6428 35.1229 32.6538 35.1147 32.662C35.0849 32.6924 35.055 32.7199 35.0224 32.7502C35.0115 32.7612 35.0007 32.7695 34.9898 32.7805C34.9599 32.8081 34.9301 32.8356 34.9002 32.866C34.8893 32.877 34.8785 32.888 34.8649 32.8963C34.835 32.9238 34.8052 32.9514 34.7753 32.9762C34.7644 32.9872 34.7509 32.9982 34.74 33.0092C34.7101 33.0368 34.6803 33.0616 34.6504 33.0891C34.6368 33.1002 34.6259 33.1112 34.6124 33.1222C34.5879 33.1443 34.5608 33.1663 34.5336 33.1883C34.5173 33.2021 34.501 33.2159 34.482 33.2324C34.4576 33.2517 34.4359 33.271 34.4114 33.2903C34.3924 33.3068 34.3734 33.3234 34.3517 33.3399C34.33 33.3592 34.3082 33.3757 34.2865 33.395C34.2648 33.4115 34.2458 33.4281 34.2241 33.4446C34.2023 33.4611 34.1806 33.4804 34.1589 33.497C34.1399 33.5135 34.1182 33.5273 34.0992 33.5438C34.0747 33.5631 34.053 33.5796 34.0286 33.5989C34.0095 33.6127 33.9933 33.6265 33.9742 33.6402C33.9471 33.6595 33.9199 33.6788 33.8955 33.7009C33.8765 33.7146 33.8575 33.7284 33.8385 33.7422C33.8113 33.7615 33.7869 33.7808 33.7597 33.8001C33.7407 33.8138 33.719 33.8276 33.7 33.8414C33.6783 33.8552 33.6593 33.8717 33.6375 33.8855C33.6131 33.9048 33.5859 33.9213 33.5615 33.9406C33.5452 33.9516 33.5289 33.9626 33.5126 33.9737C33.4828 33.9957 33.4502 34.015 33.4203 34.037C33.4067 34.0453 33.3932 34.0563 33.3769 34.0646C33.3443 34.0866 33.3117 34.1087 33.2791 34.1307C33.2655 34.139 33.252 34.1472 33.2384 34.1555C33.2031 34.1776 33.1705 34.1996 33.1352 34.2216C33.1216 34.2299 33.1108 34.2382 33.0972 34.2464C33.0619 34.2685 33.0266 34.2905 32.9913 34.3126C32.9804 34.3208 32.9668 34.3263 32.956 34.3346C32.918 34.3567 32.8827 34.3787 32.8446 34.4007C32.8338 34.4063 32.8229 34.4145 32.8121 34.42C32.7713 34.4448 32.7306 34.4669 32.6871 34.4917C32.679 34.4972 32.6736 34.4999 32.6654 34.5055C32.641 34.5192 32.6165 34.533 32.5921 34.5468C32.5894 34.5468 32.5867 34.5495 32.584 34.5523C32.5378 34.5771 32.4916 34.6047 32.4455 34.6295C32.4373 34.635 32.4265 34.6405 32.4183 34.6432C32.3776 34.6653 32.3369 34.6873 32.2961 34.7066C32.2853 34.7121 32.2744 34.7176 32.2635 34.7231C32.2255 34.7424 32.1848 34.7645 32.1441 34.7838C32.1332 34.7893 32.1223 34.7948 32.1115 34.8003C32.0735 34.8196 32.0327 34.8389 31.9947 34.8582C31.9839 34.8637 31.9703 34.8692 31.9594 34.8747C31.9214 34.894 31.8807 34.9133 31.8427 34.9298C31.8318 34.9353 31.8182 34.9408 31.8074 34.9463C31.7693 34.9629 31.7313 34.9822 31.6933 34.9987C31.6797 35.0042 31.6689 35.0097 31.6553 35.0152C31.6173 35.0317 31.5793 35.0483 31.544 35.0648C31.5304 35.0703 31.5168 35.0758 31.5032 35.0841C31.4706 35.0979 31.4381 35.1117 31.4082 35.1254C31.3892 35.1337 31.3675 35.142 31.3485 35.1502C31.324 35.1613 31.2996 35.1695 31.2751 35.1805C31.2507 35.1888 31.229 35.1998 31.2045 35.2081C31.1774 35.2191 31.1475 35.2301 31.1204 35.2412C31.1013 35.2494 31.0823 35.2549 31.0633 35.2632C31.0307 35.277 30.9982 35.288 30.9656 35.3018C30.9466 35.3101 30.9276 35.3156 30.9086 35.3238C30.876 35.3349 30.8434 35.3486 30.8108 35.3596C30.7918 35.3679 30.7701 35.3734 30.7511 35.3817C30.7185 35.3927 30.6886 35.4037 30.656 35.4148C30.6343 35.423 30.6153 35.4285 30.5936 35.4368C30.5637 35.4478 30.5338 35.4561 30.504 35.4671C30.4822 35.4754 30.4578 35.4836 30.4334 35.4892C30.4062 35.4974 30.3818 35.5057 30.3546 35.514C30.3275 35.5222 30.3003 35.5305 30.2732 35.5388C30.2541 35.5443 30.2324 35.5498 30.2134 35.558C30.1808 35.5691 30.1455 35.5773 30.1129 35.5884C30.0939 35.5939 30.0749 35.5994 30.0532 35.6049C30.0179 35.6159 29.9853 35.6242 29.95 35.6352C29.931 35.6407 29.912 35.6462 29.893 35.6517C29.8577 35.66 29.8224 35.671 29.7871 35.6793C29.7817 35.6793 29.7735 35.682 29.7681 35.6848C29.9527 35.4892 30.1319 35.2715 30.3057 35.0373C31.1285 33.9296 31.8155 32.4196 32.3097 30.645C33.7163 30.8986 34.9871 31.2513 36.0217 31.6728C36.0217 31.6756 36.0162 31.6783 36.0135 31.6811L36.0162 31.6839ZM36.6842 30.7883C35.9837 30.4825 35.1799 30.2097 34.2892 29.9755C33.7434 29.8322 33.1732 29.7082 32.5758 29.598C32.7523 28.8016 32.8935 27.9667 32.9913 27.1125C33.0917 26.2363 33.1515 25.3325 33.1651 24.4232H38.7534C38.6692 26.7158 37.9578 28.8981 36.6815 30.7856L36.6842 30.7883Z" fill="white"/>
<path d="M22.7514 27.961C22.7514 27.961 22.8682 28.1126 23.099 28.1126C23.2239 28.1126 23.3841 28.0685 23.5769 27.928C23.5769 27.928 24.2639 27.4733 23.9272 26.575L21.1439 13.5169L25.7438 8.84914C25.7438 8.84914 27.5577 6.4078 26.5041 5.20917C26.5014 5.21193 26.1538 4.99976 25.5429 4.99976C24.8368 4.99976 23.7806 5.28081 22.4935 6.49597L18.3579 10.6071L4.94106 7.82411C4.94106 7.82411 3.84404 7.8682 3.97166 8.93732L13.7607 15.3465L8.85939 20.2953L3.76257 20.2402C3.76257 20.2402 2.95881 20.626 2.99954 21.0944L6.94775 23.5137C6.94775 23.5137 6.4997 24.7675 6.94775 25.1477C6.94775 25.1477 7.04822 25.2993 7.49083 25.2993C7.71349 25.2993 8.02033 25.2607 8.44394 25.1477L10.915 29.2148C10.915 29.2148 11.5884 28.9861 11.7757 28.2641L11.5884 23.172L16.5684 18.2315L22.746 27.9583L22.7514 27.961Z" fill="white"/>
</g>
<defs>
<clipPath id="clip0_2033_1053">
<rect width="36.8236" height="32.137" fill="white" transform="translate(3 5)"/>
</clipPath>
</defs>
</svg>
