<svg width="31" height="30" viewBox="0 0 31 30" fill="none" xmlns="http://www.w3.org/2000/svg">
<g clip-path="url(#clip0_2010_557)">
<path d="M15.2511 2.5C8.34754 2.5 2.7511 8.09644 2.7511 15C2.7511 21.2391 7.32216 26.4104 13.298 27.3481V18.6133H10.1241V15H13.298V12.2461C13.298 9.11329 15.1641 7.38281 18.0194 7.38281C19.387 7.38281 20.8175 7.62695 20.8175 7.62695V10.7031H19.2412C17.6885 10.7031 17.2042 11.6667 17.2042 12.6553V15H20.671L20.1169 18.6133H17.2042V27.3481C23.18 26.4104 27.7511 21.2391 27.7511 15C27.7511 8.09644 22.1546 2.5 15.2511 2.5Z" fill="white"/>
</g>
<defs>
<clipPath id="clip0_2010_557">
<rect width="30" height="30" fill="white" transform="translate(0.249939)"/>
</clipPath>
</defs>
</svg>
