<svg width="31" height="30" viewBox="0 0 31 30" fill="none" xmlns="http://www.w3.org/2000/svg">
<path d="M15.7511 11.25C13.6794 11.25 12.0011 12.9289 12.0011 15C12.0011 17.0716 13.68 18.75 15.7511 18.75C17.8227 18.75 19.5011 17.0711 19.5011 15C19.5011 12.9284 17.8222 11.25 15.7511 11.25ZM15.7511 8.75C19.2016 8.75 22.0011 11.5464 22.0011 15C22.0011 18.4506 19.2047 21.25 15.7511 21.25C12.3005 21.25 9.5011 18.4536 9.5011 15C9.5011 11.5494 12.2975 8.75 15.7511 8.75ZM23.8761 8.43644C23.8761 9.29908 23.1751 9.99896 22.3136 9.99896C21.451 9.99896 20.7511 9.298 20.7511 8.43644C20.7511 7.57488 21.452 6.875 22.3136 6.875C23.174 6.87391 23.8761 7.57488 23.8761 8.43644ZM15.7511 5C12.658 5 12.1538 5.00819 10.7152 5.07225C9.73506 5.11826 9.07804 5.25009 8.46757 5.48709C7.92507 5.69749 7.53374 5.94873 7.11677 6.36569C6.69821 6.78425 6.44742 7.17454 6.23787 7.71729C6.00032 8.32915 5.86854 8.98514 5.82335 9.96394C5.75866 11.344 5.7511 11.8263 5.7511 15C5.7511 18.0931 5.75929 18.5973 5.82334 20.0358C5.86937 21.0155 6.00137 21.6735 6.2378 22.2825C6.44875 22.8258 6.7005 23.218 7.11545 23.633C7.53566 24.0526 7.92711 24.3043 8.46471 24.5118C9.08261 24.7506 9.73922 24.8826 10.715 24.9278C12.0951 24.9924 12.5774 25 15.7511 25C18.8442 25 19.3484 24.9918 20.7869 24.9278C21.7645 24.8819 22.423 24.7495 23.0336 24.5133C23.5754 24.3029 23.9689 24.0503 24.3841 23.6356C24.8044 23.2148 25.0555 22.8243 25.2632 22.2854C25.5015 21.6698 25.6337 21.0123 25.6789 20.0361C25.7435 18.656 25.7511 18.1736 25.7511 15C25.7511 11.9069 25.7429 11.4028 25.6789 9.96421C25.6329 8.98633 25.5005 8.32686 25.264 7.71648C25.0541 7.17548 24.802 6.78294 24.3854 6.36569C23.9661 5.94644 23.5769 5.69616 23.0337 5.48678C22.4224 5.24943 21.7654 5.11745 20.7871 5.07226C19.4071 5.00756 18.9247 5 15.7511 5ZM15.7511 2.5C19.1469 2.5 19.5709 2.5125 20.9042 2.575C22.2344 2.63646 23.1417 2.84688 23.9386 3.15625C24.7625 3.47396 25.4584 3.90313 26.1531 4.59791C26.8469 5.29271 27.2761 5.99063 27.5949 6.8125C27.9031 7.60834 28.1136 8.51666 28.1761 9.84688C28.2355 11.1802 28.2511 11.6042 28.2511 15C28.2511 18.3959 28.2386 18.8198 28.1761 20.1531C28.1146 21.4834 27.9031 22.3906 27.5949 23.1875C27.2771 24.0115 26.8469 24.7073 26.1531 25.4021C25.4584 26.0959 24.7594 26.525 23.9386 26.8438C23.1417 27.1521 22.2344 27.3625 20.9042 27.425C19.5709 27.4844 19.1469 27.5 15.7511 27.5C12.3553 27.5 11.9313 27.4875 10.598 27.425C9.26776 27.3635 8.36151 27.1521 7.5636 26.8438C6.74067 26.526 6.0438 26.0959 5.34901 25.4021C4.65422 24.7073 4.2261 24.0084 3.90735 23.1875C3.59797 22.3906 3.3886 21.4834 3.3261 20.1531C3.26672 18.8198 3.2511 18.3959 3.2511 15C3.2511 11.6042 3.2636 11.1802 3.3261 9.84688C3.38755 8.51563 3.59797 7.60938 3.90735 6.8125C4.22505 5.98959 4.65422 5.29271 5.34901 4.59791C6.0438 3.90313 6.74172 3.475 7.5636 3.15625C8.36047 2.84688 9.26672 2.6375 10.598 2.575C11.9313 2.51562 12.3553 2.5 15.7511 2.5Z" fill="white"/>
</svg>
