<svg width="25" height="25" viewBox="0 0 25 25" fill="none" xmlns="http://www.w3.org/2000/svg">
<g clip-path="url(#clip0_2010_556)">
<path d="M22.7746 0H1.97538C0.888873 0 0 0.888873 0 1.97538V22.7746C0 23.8611 0.888873 24.75 1.97538 24.75H22.7746C23.8611 24.75 24.75 23.8611 24.75 22.7746V1.97538C24.75 0.888873 23.8611 0 22.7746 0ZM7.17542 21.2685H3.59804V9.46373H7.17511V21.2685H7.17542ZM5.41586 7.64992C4.26246 7.64992 3.32765 6.7151 3.32765 5.5617C3.32765 4.40829 4.26246 3.47348 5.41586 3.47348C6.56927 3.47348 7.50408 4.40829 7.50408 5.5617C7.50408 6.7151 6.56927 7.64992 5.41586 7.64992ZM21.1458 21.2765H17.5351L17.5447 14.9554C17.5447 11.1428 13.0078 11.9124 12.8503 14.8007V21.2685H9.27319V9.46373H12.6748V11.0691C14.9872 8.02267 21.1458 8.32975 21.1458 14.1014V21.2765Z" fill="white"/>
</g>
<defs>
<clipPath id="clip0_2010_556">
<rect width="24.75" height="24.75" fill="white"/>
</clipPath>
</defs>
</svg>
