<svg width="15" height="15" viewBox="0 0 15 15" fill="none" xmlns="http://www.w3.org/2000/svg">
<g clip-path="url(#clip0_2010_554)">
<path d="M14.4313 10.3773C14.2556 10.3773 14.1129 10.2424 14.1129 10.0752C14.1129 5.95488 10.6231 2.60349 6.33327 2.60349C6.15759 2.60349 6.01489 2.46858 6.01489 2.30138C6.01489 2.13418 6.15759 1.99927 6.33327 1.99927C7.47069 1.99927 8.57347 2.21282 9.61191 2.63412C10.6141 3.04052 11.5148 3.62323 12.2868 4.36485C13.0588 5.10648 13.6651 5.96978 14.089 6.93157C14.527 7.92731 14.7497 8.98429 14.7497 10.0752C14.7497 10.2416 14.607 10.3773 14.4313 10.3773Z" fill="white"/>
<path d="M12.403 9.49819C12.2274 9.49819 12.0847 9.36327 12.0847 9.19607C12.0847 6.63018 9.91211 4.5427 7.24135 4.5427C7.06567 4.5427 6.92297 4.40779 6.92297 4.24059C6.92297 4.07339 7.06567 3.93848 7.24135 3.93848C7.98204 3.93848 8.70045 4.07753 9.3768 4.3515C10.0292 4.61637 10.6157 4.99546 11.1188 5.47801C11.6211 5.96057 12.0162 6.52258 12.2917 7.14832C12.5771 7.79642 12.7214 8.48424 12.7214 9.19442C12.7214 9.36079 12.5787 9.49653 12.403 9.49653V9.49819Z" fill="white"/>
<path d="M10.4697 9.0397C10.294 9.0397 10.1513 8.90478 10.1513 8.73759C10.1513 7.44305 9.05593 6.38938 7.709 6.38938C7.53332 6.38938 7.39062 6.25447 7.39062 6.08727C7.39062 5.92007 7.53332 5.78516 7.709 5.78516C8.53299 5.78516 9.30667 6.09224 9.88734 6.65094C10.4672 7.20798 10.7872 7.94878 10.7872 8.73676C10.7872 8.90313 10.6445 9.03887 10.4688 9.03887L10.4697 9.0397Z" fill="white"/>
<path d="M2 5.73726C2 5.73726 2 3.69034 3.72964 2.99093C3.72964 2.99093 3.75851 2.97769 3.81047 2.96362C3.9111 2.93547 4.01585 2.92471 4.1206 2.93134C4.28391 2.94127 4.61714 2.96775 4.76231 3.01907C4.7788 3.02487 4.79612 3.03066 4.81345 3.03563C4.89263 3.06046 5.14172 3.17634 5.29184 3.65061L6.01438 5.73561C6.01438 5.73561 6.22718 6.3001 5.86426 6.60222C5.85271 6.61215 5.84117 6.62208 5.83044 6.63284L5.15492 7.31073C5.07409 7.39185 5.01553 7.492 4.98913 7.60374C4.96769 7.69479 4.96521 7.79991 5.02295 7.89178C5.04027 7.9191 5.05594 7.94807 5.06914 7.97787C5.22255 8.3255 6.18511 10.3054 8.80225 11.7067C8.80225 11.7067 9.08599 11.8747 9.40849 11.5776L9.93555 11.0602C9.95782 11.0379 9.97927 11.0147 9.99824 10.9891C10.0824 10.8765 10.4073 10.5131 10.9567 10.7225L13.1507 11.4733C13.1672 11.4791 13.1837 11.4849 13.201 11.4898C13.2719 11.5122 13.6579 11.6545 13.7256 12.1106C13.7305 12.1454 13.7355 12.181 13.7412 12.2157C13.7643 12.3597 13.8147 12.7521 13.7314 13.002C13.7314 13.002 13.2026 14.6856 10.8791 14.7502C10.8791 14.7502 9.35983 14.7626 7.73329 13.6443C7.68958 13.6137 7.64421 13.5848 7.59885 13.5574C7.12623 13.2711 4.27402 11.4518 2.76213 8.41738C2.76213 8.41738 2.00082 7.04421 2.00082 5.73643L2 5.73726Z" fill="white"/>
</g>
<defs>
<clipPath id="clip0_2010_554">
<rect width="12.75" height="12.75" fill="white" transform="translate(2 2)"/>
</clipPath>
</defs>
</svg>
