<svg width="18" height="18" viewBox="0 0 18 18" fill="none" xmlns="http://www.w3.org/2000/svg">
<path d="M10.7858 13.6726L5.81236 11.0962C5.19489 11.6765 4.34924 12.0336 3.4096 12.0336C1.53032 12.0336 0 10.5861 0 8.79414C0 7.00215 1.52361 5.55449 3.4096 5.55449C4.34924 5.55449 5.19489 5.91159 5.81236 6.49191L10.7858 3.91551C10.7388 3.69869 10.7119 3.47545 10.7119 3.2395C10.7119 1.45389 12.2355 0 14.1215 0C16.0075 0 17.531 1.44751 17.531 3.2395C17.531 5.03148 16.0075 6.47915 14.1215 6.47915C13.1818 6.47915 12.3362 6.12204 11.7187 5.54172L6.7453 8.11812C6.79228 8.33494 6.81912 8.55818 6.81912 8.79414C6.81912 9.03009 6.79228 9.25318 6.7453 9.47L11.7187 12.0464C12.3362 11.4661 13.1818 11.109 14.1215 11.109C16.0007 11.109 17.531 12.5566 17.531 14.3486C17.531 16.1406 16.0075 17.5881 14.1215 17.5881C12.2355 17.5881 10.7119 16.1406 10.7119 14.3486C10.7119 14.119 10.7388 13.8894 10.7858 13.6726Z" fill="#176207"/>
</svg>
