<svg width="15" height="15" viewBox="0 0 15 15" fill="none" xmlns="http://www.w3.org/2000/svg">
<path d="M11.8371 10.7939L15 13.9567L13.9568 15L10.7939 11.837C9.65547 12.7468 8.21693 13.2899 6.645 13.2899C2.97717 13.2899 0 10.3128 0 6.64495C0 2.97711 2.97717 0 6.645 0C10.3128 0 13.2899 2.97711 13.2899 6.64495C13.2899 8.21211 12.7469 9.65541 11.8371 10.7939ZM10.3557 10.2461C11.2607 9.31725 11.8133 8.04539 11.8133 6.64495C11.8133 3.79166 9.49829 1.47659 6.645 1.47659C3.79172 1.47659 1.47665 3.79166 1.47665 6.64495C1.47665 9.49823 3.79172 11.8132 6.645 11.8132C8.04545 11.8132 9.31249 11.256 10.2461 10.3557L10.3557 10.2461Z" fill="#176207"/>
</svg>
