<svg width="16" height="14" viewBox="0 0 16 14" fill="none" xmlns="http://www.w3.org/2000/svg">
<g clip-path="url(#clip0_2029_700)">
<path d="M15.8503 1.90748C15.8162 1.87156 15.7696 1.84928 15.7187 1.84928H10.7396C10.7353 1.35956 10.5489 0.8944 10.2201 0.547917C9.88743 0.197341 9.43957 0 8.96885 0H6.93665C6.46592 0 6.01806 0.197341 5.6854 0.547917C5.35663 0.8944 5.17024 1.35956 5.16592 1.84928H0.186824C0.135911 1.84928 0.0888816 1.87156 0.0552274 1.90748C0.0211417 1.9434 0 1.99251 0 2.04616V3.55668C0 4.78893 0.478494 5.90977 1.24952 6.72232C2.02055 7.53488 3.08367 8.03914 4.25337 8.03914H7.02337V7.54624C7.02337 7.27661 7.12779 7.03152 7.29606 6.85419C7.46433 6.67685 7.69689 6.56681 7.95275 6.56681C8.20861 6.56681 8.44117 6.67685 8.60944 6.85419C8.77771 7.03152 8.88212 7.27661 8.88212 7.54624V8.03914H11.6521C12.8214 8.03914 13.885 7.53488 14.656 6.72232C15.427 5.90977 15.9055 4.78938 15.9055 3.55668V2.04616C15.9055 1.99251 15.8844 1.9434 15.8503 1.90748ZM6.22603 1.85337C6.22948 1.65875 6.30456 1.47551 6.43529 1.33773C6.56861 1.19678 6.74767 1.1172 6.93665 1.1172H8.96885C9.15783 1.1172 9.33689 1.19678 9.47021 1.33773C9.60094 1.47551 9.67602 1.65875 9.67947 1.85337H6.22603Z" fill="#176207"/>
<path d="M11.6517 8.59812H8.88169V9.39749C8.88169 9.66713 8.77728 9.91222 8.60901 10.0895C8.44073 10.2669 8.20818 10.3769 7.95232 10.3769C7.69646 10.3769 7.4639 10.2669 7.29563 10.0895C7.12736 9.91222 7.02294 9.66713 7.02294 9.39749V8.59812H4.25294C2.93741 8.59812 1.74139 8.03111 0.874578 7.11761C0.525092 6.7493 0.228676 6.32416 0 5.85718V13.0578C0 13.1115 0.0211417 13.1606 0.0552274 13.1965C0.0893131 13.2325 0.135911 13.2547 0.186824 13.2547H15.7187C15.7696 13.2547 15.8162 13.2325 15.8503 13.1965C15.8844 13.1606 15.9055 13.1115 15.9055 13.0578V5.85718C15.6764 6.32416 15.3804 6.74885 15.0309 7.11761C14.1641 8.03111 12.9681 8.59812 11.6526 8.59812H11.6517Z" fill="#176207"/>
<path d="M8.23554 9.69463C8.30802 9.61824 8.3529 9.5132 8.3529 9.3977V7.54706C8.3529 7.43157 8.30802 7.32653 8.23554 7.25014C8.16305 7.17375 8.06338 7.12646 7.95379 7.12646C7.8442 7.12646 7.74453 7.17375 7.67205 7.25014C7.59956 7.32653 7.55469 7.43157 7.55469 7.54706V9.3977C7.55469 9.5132 7.59956 9.61824 7.67205 9.69463C7.74453 9.77102 7.8442 9.8183 7.95379 9.8183C8.06338 9.8183 8.16305 9.77102 8.23554 9.69463Z" fill="#176207"/>
</g>
<defs>
<clipPath id="clip0_2029_700">
<rect width="15.9055" height="13.2546" fill="white"/>
</clipPath>
</defs>
</svg>
