<svg width="31" height="30" viewBox="0 0 31 30" fill="none" xmlns="http://www.w3.org/2000/svg">
<path d="M15.5549 5.00024C16.2225 5.00392 17.8929 5.02007 19.6676 5.09116L20.2969 5.11859C22.0838 5.20319 23.8691 5.34772 24.7546 5.59462C25.9358 5.92643 26.8641 6.89462 27.1779 8.12189C27.6775 10.0708 27.74 13.8745 27.7477 14.795L27.7489 14.9857V14.9991C27.7489 14.9991 27.7489 15.0037 27.7489 15.0126L27.7477 15.2034C27.74 16.1239 27.6775 19.9276 27.1779 21.8765C26.8597 23.1082 25.9314 24.0765 24.7546 24.4037C23.8691 24.6506 22.0838 24.7951 20.2969 24.8797L19.6676 24.9071C17.8929 24.9782 16.2225 24.9944 15.5549 24.9981L15.2619 24.9991H15.2489C15.2489 24.9991 15.2445 24.9991 15.2359 24.9991L14.9431 24.9981C13.5301 24.9904 7.62215 24.9265 5.74314 24.4037C4.562 24.0719 3.63365 23.1037 3.31984 21.8765C2.82025 19.9276 2.7578 16.1239 2.75 15.2034V14.795C2.7578 13.8745 2.82025 10.0708 3.31984 8.12189C3.638 6.89007 4.56635 5.92189 5.74314 5.59462C7.62215 5.07178 13.5301 5.00802 14.9431 5.00024H15.5549ZM12.7489 10.6242V19.3741L20.2489 14.9991L12.7489 10.6242Z" fill="white"/>
</svg>
