<svg width="65" height="65" viewBox="0 0 65 65" fill="none" xmlns="http://www.w3.org/2000/svg">
<path d="M32.825 64.3741C50.5945 64.3741 64.9996 49.969 64.9996 32.1995C64.9996 14.43 50.5945 0.0249023 32.825 0.0249023C15.0554 0.0249023 0.650391 14.43 0.650391 32.1995C0.650391 49.969 15.0554 64.3741 32.825 64.3741Z" fill="#FF3600"/>
<path d="M39.7159 44.0427C40.351 43.5851 40.877 43.1343 41.3141 42.7245C41.3482 42.6903 41.3824 42.663 41.4097 42.6289L41.6282 42.4104C41.7785 42.2601 41.915 42.1098 42.038 41.9664C42.236 41.741 42.4068 41.5361 42.5434 41.3517C42.5434 41.3517 42.5434 41.3449 42.5502 41.3449C43.6156 39.9038 43.7796 38.811 43.8001 38.4149C43.8001 38.3603 43.8069 38.3194 43.8001 38.2989V38.2579C43.7933 38.1349 43.7591 38.0188 43.6976 37.9164C43.2332 37.1651 41.4097 37.4452 39.6135 38.5516C37.8241 39.6511 36.745 41.1605 37.2094 41.9117C37.6738 42.663 39.4974 42.383 41.2936 41.2766C41.6965 41.0239 42.0653 40.7575 42.3863 40.4775C41.3414 42.1849 39.511 43.0386 39.272 43.1343C36.3762 44.3499 33.8287 44.4456 33.0569 43.1821C32.0666 41.5498 34.457 38.2852 38.1997 35.9904C42.3726 33.4361 45.9992 33.1083 46.9486 34.6245C47.8091 36.0041 46.327 39.3506 42.6595 42.5401C49.0179 38.5311 52.583 32.842 50.6775 29.7481C48.7379 26.6065 41.8741 27.3167 35.3449 31.3394C28.8158 35.3621 25.1072 41.1605 27.0332 44.3158C27.7435 45.4768 29.1026 46.0984 30.892 46.2486C30.892 46.2486 32.3467 46.392 34.1907 46.0369C35.9049 45.7022 37.988 45.1217 39.7159 44.0427Z" fill="white"/>
<path d="M34.9631 14.9543C34.6284 14.9543 34.5396 15.4188 34.8538 15.5417C35.8987 15.9651 36.8481 16.5866 37.654 17.3516C34.8675 18.417 31.9853 19.8375 29.1442 21.5928C16.9873 29.0986 10.0552 39.9237 13.6749 45.7835C16.6117 50.537 25.6064 50.5575 35.4002 46.3845C30.0252 47.7163 26.0435 46.6783 24.3976 46.0909C24.3293 46.0704 24.2746 46.043 24.2132 46.0225C24.1039 45.9816 24.0015 45.9406 23.899 45.8997C23.8034 45.8587 23.7282 45.8245 23.6736 45.804L23.5575 45.7494C22.7107 45.3328 22.0618 44.7386 21.6043 43.9873C19.0704 39.8622 23.9195 32.2676 32.4702 26.9951C35.1406 25.3491 37.8452 24.1198 40.3859 23.3412C40.3927 23.4778 40.3926 23.6007 40.3926 23.7373C40.3926 24.83 40.1946 25.8819 39.8258 26.8517C39.7097 27.1522 40.0921 27.4049 40.3243 27.1726L52.9251 15.1251C52.9866 15.0636 52.9456 14.9543 52.8568 14.9543H34.9631Z" fill="white"/>
<path d="M41.2733 44.6363C40.5971 44.9914 39.9142 45.3192 39.238 45.6129C38.1385 46.0909 37.3326 47.0812 37.0935 48.2559L36.8271 49.2258C37.4418 48.9458 38.0907 48.6726 38.719 48.3516C46.0199 44.6157 50.8895 39.0359 51.4358 34.8083C50.3089 38.0798 46.5048 41.8907 41.2733 44.6363Z" fill="white"/>
<path d="M35.3322 29.7749C36.8894 28.8119 36.705 26.8381 36.705 26.8381C35.0522 27.5621 33.3789 28.5183 31.6647 29.6861C28.9806 31.5165 26.3033 34.0162 24.6437 36.5295C21.7616 40.8868 21.8162 45.367 27.4507 46.1866C27.4575 46.1797 18.4561 40.9278 35.3322 29.7749Z" fill="white"/>
</svg>
