<svg width="102" height="52" viewBox="0 0 102 52" fill="none" xmlns="http://www.w3.org/2000/svg">
<path d="M39.9643 43.0412C40.9048 42.3627 41.6835 41.6997 42.3234 41.0907C42.3696 41.0444 42.4236 40.9982 42.4699 40.9519C42.5855 40.844 42.6934 40.736 42.7937 40.6281C43.0172 40.4045 43.2177 40.1809 43.4027 39.9728C43.6957 39.6413 43.9424 39.3329 44.1505 39.0631H44.1582C45.731 36.9198 45.9777 35.3009 46.0085 34.7226C46.0162 34.6456 46.0162 34.5839 46.0162 34.5453V34.4914C46.0008 34.3063 45.9545 34.1367 45.862 33.9825C45.1759 32.8724 42.4699 33.2887 39.8255 34.9231C37.1734 36.5575 35.5853 38.7778 36.2714 39.8957C36.9576 41.0059 39.6636 40.5896 42.308 38.9551C42.9093 38.5851 43.449 38.1842 43.9269 37.7756C42.3773 40.2966 39.679 41.5609 39.3244 41.7074C35.0379 43.5037 31.268 43.6502 30.127 41.7768C28.6622 39.3637 32.1931 34.5299 37.744 31.13C43.9115 27.3524 49.285 26.8667 50.6804 29.1102C51.9525 31.1532 49.763 36.1026 44.3355 40.8285C53.7411 34.8923 59.0221 26.4812 56.1927 21.9018C53.3248 17.253 43.1637 18.3092 33.5037 24.2609C23.8438 30.2126 18.3546 38.801 21.2071 43.4575C22.2556 45.169 24.2755 46.0941 26.9199 46.3254C26.9199 46.3254 29.0708 46.5336 31.8 46.0093C34.3287 45.5082 37.4124 44.6447 39.9643 43.0412Z" fill="#FF3600"/>
<path d="M32.9263 0.00771111C32.4252 0.00771111 32.3019 0.693852 32.7645 0.878879C34.3063 1.50335 35.7172 2.42848 36.9044 3.55407C32.7799 5.13451 28.5165 7.23148 24.3149 9.82957C6.32869 20.9312 -3.93262 36.9515 1.41775 45.6246C5.75818 52.6634 19.0724 52.6942 33.5585 46.5112C25.6024 48.4848 19.7123 46.9507 17.2761 46.0795C17.1759 46.0487 17.0911 46.0101 17.0063 45.9793C16.8444 45.9176 16.6902 45.8559 16.536 45.7942C16.3972 45.7403 16.2893 45.6863 16.2045 45.6478L16.0349 45.563C14.786 44.9385 13.8223 44.0673 13.1439 42.9572C9.38934 36.8513 16.5746 25.6186 29.2181 17.8166C33.1653 15.3804 37.1666 13.561 40.9365 12.4122C40.9442 12.6127 40.9519 12.7977 40.9519 12.9982C40.9519 14.6172 40.6589 16.1745 40.1193 17.6007C39.9497 18.0479 40.5125 18.4179 40.8594 18.0787L59.5009 0.246703C59.5934 0.154189 59.5317 0 59.4007 0H32.9263V0.00771111Z" fill="#176207"/>
<path d="M42.2706 43.9283C41.2683 44.4526 40.2661 44.9383 39.2639 45.37C37.6295 46.0793 36.4499 47.5364 36.0953 49.2787L35.7021 50.7204C36.6118 50.3041 37.5755 49.9032 38.5006 49.4329C49.3016 43.9052 56.5099 35.6561 57.3194 29.396C55.6465 34.2221 50.0109 39.8732 42.2706 43.9283Z" fill="#176207"/>
<path d="M33.4817 21.9332C35.7868 20.5069 35.5093 17.5928 35.5093 17.5928C33.0654 18.6644 30.5907 20.0829 28.0542 21.8021C24.0839 24.5082 20.1212 28.2087 17.6696 31.9247C13.4062 38.3698 13.4911 44.9999 21.825 46.2103C21.825 46.218 8.51074 38.4392 33.4817 21.9332Z" fill="#FFC103"/>
<path d="M68.0809 50.9836V46.2886H68.5435V50.9836H68.0809ZM68.4047 46.7203V46.2886H71.0337V46.7203H68.4047ZM68.4047 48.9098V48.4781H70.679V48.9098H68.4047Z" fill="#176207"/>
<path d="M73.7855 51.0366C73.4309 51.0366 73.1379 50.9672 72.8912 50.8362C72.6445 50.6974 72.4595 50.5046 72.3284 50.2425C72.1974 49.9881 72.1357 49.672 72.1357 49.3097V47.9759C72.1357 47.6059 72.1974 47.2975 72.3284 47.0354C72.4595 46.781 72.6445 46.5805 72.8912 46.4495C73.1379 46.3107 73.4309 46.249 73.7855 46.249C74.1401 46.249 74.4331 46.3184 74.6798 46.4495C74.9265 46.5882 75.1115 46.781 75.2426 47.0354C75.3737 47.2898 75.4353 47.6059 75.4353 47.9759V49.3097C75.4353 49.672 75.3737 49.9881 75.2426 50.2425C75.1115 50.5046 74.9265 50.6974 74.6798 50.8362C74.4331 50.9672 74.1401 51.0366 73.7855 51.0366ZM73.7855 50.5972C74.1633 50.5972 74.4562 50.4892 74.6567 50.2657C74.8648 50.0421 74.9651 49.726 74.9651 49.3251V47.9528C74.9651 47.5519 74.8648 47.2358 74.6567 47.0123C74.4485 46.7887 74.1556 46.6808 73.7855 46.6808C73.4155 46.6808 73.1148 46.7887 72.9143 47.0123C72.7062 47.2358 72.606 47.5519 72.606 47.9528V49.3251C72.606 49.726 72.7062 50.0421 72.9143 50.2657C73.1148 50.4892 73.4077 50.5972 73.7855 50.5972Z" fill="#176207"/>
<path d="M78.3807 51.0366C78.026 51.0366 77.7331 50.9672 77.4864 50.8362C77.2397 50.6974 77.0546 50.5046 76.9236 50.2425C76.7925 49.9881 76.7308 49.672 76.7308 49.3097V47.9759C76.7308 47.6059 76.7925 47.2975 76.9236 47.0354C77.0546 46.781 77.2397 46.5805 77.4864 46.4495C77.7331 46.3107 78.026 46.249 78.3807 46.249C78.7353 46.249 79.0283 46.3184 79.275 46.4495C79.5217 46.5882 79.7067 46.781 79.8377 47.0354C79.9688 47.2898 80.0305 47.6059 80.0305 47.9759V49.3097C80.0305 49.672 79.9688 49.9881 79.8377 50.2425C79.7067 50.5046 79.5217 50.6974 79.275 50.8362C79.0283 50.9672 78.7353 51.0366 78.3807 51.0366ZM78.3807 50.5972C78.7584 50.5972 79.0514 50.4892 79.2518 50.2657C79.46 50.0421 79.5602 49.726 79.5602 49.3251V47.9528C79.5602 47.5519 79.46 47.2358 79.2518 47.0123C79.0437 46.7887 78.7507 46.6808 78.3807 46.6808C78.0106 46.6808 77.7099 46.7887 77.5095 47.0123C77.3013 47.2358 77.2011 47.5519 77.2011 47.9528V49.3251C77.2011 49.726 77.3013 50.0421 77.5095 50.2657C77.7099 50.4892 78.0029 50.5972 78.3807 50.5972Z" fill="#176207"/>
<path d="M81.4882 50.9836V46.2886H81.9507V50.9836H81.4882ZM81.9353 50.9836V50.5519H82.9992C83.431 50.5519 83.7624 50.4517 83.9783 50.2435C84.1942 50.0431 84.3021 49.7347 84.3021 49.3261V47.9461C84.3021 47.5375 84.1942 47.2291 83.9783 47.0287C83.7624 46.8282 83.4387 46.7203 82.9992 46.7203H81.9353V46.2886H82.9761C83.5774 46.2886 84.0246 46.4273 84.3175 46.7049C84.6105 46.9824 84.7647 47.4064 84.7647 47.9692V49.303C84.7647 49.6807 84.6953 49.9891 84.5642 50.2358C84.4332 50.4825 84.2327 50.6676 83.9706 50.7986C83.7085 50.922 83.377 50.9836 82.9761 50.9836H81.9353Z" fill="#176207"/>
<path d="M87.5632 51.0366C87.3319 51.0366 87.1237 51.0135 86.9156 50.9749C86.7151 50.9287 86.5224 50.867 86.3528 50.7822C86.1755 50.6974 86.0136 50.5895 85.8594 50.4584L86.1369 50.0883C86.3374 50.2579 86.5532 50.389 86.7845 50.4738C87.0235 50.5586 87.2779 50.6049 87.5555 50.6049C87.9563 50.6049 88.2724 50.5278 88.4883 50.3659C88.7042 50.204 88.8198 49.9804 88.8198 49.6952C88.8198 49.5024 88.7658 49.3482 88.6579 49.2403C88.55 49.1324 88.4112 49.0553 88.2339 49.0013C88.0643 48.9473 87.8716 48.9011 87.6711 48.8625C87.4861 48.824 87.2933 48.7854 87.1083 48.7392C86.9233 48.6929 86.746 48.6313 86.5918 48.5542C86.4376 48.4771 86.3065 48.3614 86.214 48.2149C86.1215 48.0685 86.0752 47.8757 86.0752 47.629C86.0752 47.1896 86.2217 46.8504 86.5147 46.6114C86.8076 46.3724 87.2162 46.249 87.7482 46.249C87.9949 46.249 88.2416 46.2876 88.4806 46.3724C88.7196 46.4495 88.9586 46.5728 89.1899 46.7424L88.9123 47.1048C88.7119 46.966 88.5114 46.8581 88.3187 46.7887C88.126 46.7193 87.9332 46.6808 87.7405 46.6808C87.355 46.6808 87.0621 46.7579 86.8462 46.9197C86.638 47.0816 86.5301 47.3052 86.5301 47.6059C86.5301 47.7986 86.5918 47.9451 86.7074 48.0453C86.8231 48.1456 86.985 48.2227 87.17 48.2766C87.3627 48.3306 87.5632 48.3768 87.779 48.4154C87.9564 48.4539 88.1414 48.4925 88.3187 48.5464C88.496 48.5927 88.6579 48.6621 88.8044 48.7469C88.9509 48.8317 89.0665 48.9473 89.1513 49.0938C89.2361 49.2403 89.2824 49.433 89.2824 49.6643C89.2824 50.1038 89.1282 50.443 88.8275 50.6743C88.5346 50.9132 88.1105 51.0366 87.5632 51.0366Z" fill="#176207"/>
<path d="M75.4358 8.55859C75.4358 9.05971 75.3047 9.45289 75.0349 9.74585C74.765 10.0388 74.4027 10.1853 73.9324 10.1853H72.9302V18.5038H70.5865V10.1853H68.0809C68.0809 9.68418 68.212 9.28328 68.4818 8.99803C68.7517 8.70507 69.114 8.5663 69.5843 8.5663H75.4358V8.55859Z" fill="#176207"/>
<path d="M82.9138 13.5696C83.6693 13.8086 84.0471 14.3714 84.0471 15.2503V18.496H81.7111V15.0344C81.7111 14.7569 81.6494 14.5487 81.5338 14.4023C81.4104 14.2558 81.2331 14.1864 80.9941 14.1864H79.8069V18.496H77.4709V9.78429C77.4709 9.39882 77.5943 9.09044 77.8487 8.87458C78.0954 8.65871 78.4346 8.55078 78.8509 8.55078H81.1715C82.0658 8.55078 82.775 8.75122 83.2839 9.15982C83.8004 9.56843 84.0548 10.085 84.0548 10.7171V11.7194C84.0548 12.6522 83.677 13.2458 82.9215 13.508V13.5696H82.9138ZM79.7992 13.1456H80.7551C81.0558 13.1456 81.2871 13.0223 81.4567 12.7833C81.6263 12.5443 81.7111 12.259 81.7111 11.9352V10.8636C81.7111 10.5398 81.6263 10.27 81.4567 10.0541C81.2871 9.83826 81.0558 9.73033 80.7551 9.73033H79.7992V13.1456Z" fill="#176207"/>
<path d="M86.4912 8.55078H88.8349V18.5037H86.4912V8.55078Z" fill="#176207"/>
<path d="M72.7689 27.369L74.6654 21.2939H76.4386L73.324 31.2469H72.7612C71.89 31.2469 71.2887 30.8074 70.9572 29.9208L68.0892 21.2939H70.6257L72.6841 27.369H72.7689Z" fill="#176207"/>
<path d="M78.5042 21.2939H80.8479V31.2469H78.5042V21.2939Z" fill="#176207"/>
<path d="M88.9587 21.3018V22.6895H85.6976V25.3569H88.5964V26.5982H85.6976V29.0035C85.6976 29.2811 85.7593 29.4892 85.875 29.6357C85.9983 29.7822 86.1756 29.8516 86.4146 29.8516H88.951V31.2393H85.3276C84.6491 31.2393 84.1558 31.0619 83.832 30.6996C83.5082 30.3373 83.3463 29.8207 83.3463 29.1423V21.3018H88.9587Z" fill="#176207"/>
<path d="M98.1405 21.3018C98.1405 21.8029 98.0094 22.1961 97.7396 22.489C97.4698 22.782 97.1074 22.9285 96.6371 22.9285H95.6349V31.247H93.2912V22.9285H90.7856C90.7856 22.4273 90.9167 22.0264 91.1865 21.7412C91.4564 21.4482 91.8187 21.3095 92.289 21.3095H98.1405V21.3018Z" fill="#176207"/>
<path d="M70.4251 40.3899V43.9979H68.0892V35.2863C68.0892 34.9008 68.2125 34.5924 68.4669 34.3765C68.7136 34.1607 69.0529 34.0527 69.4692 34.0527H72.0827C72.9307 34.0527 73.5783 34.284 74.0178 34.7389C74.4572 35.1937 74.6808 35.8336 74.6808 36.6508V38.0077C74.6808 38.6399 74.4572 39.1872 74.0178 39.6729C73.5783 40.1509 72.9307 40.3899 72.0827 40.3899H70.4251ZM70.4251 35.2246V39.2181H71.3811C71.6818 39.2181 71.9131 39.0947 72.0827 38.8557C72.2523 38.6167 72.3371 38.3315 72.3371 38.0077V36.3579C72.3371 36.0341 72.2523 35.7642 72.0827 35.5484C71.9131 35.3325 71.6818 35.2246 71.3811 35.2246H70.4251Z" fill="#176207"/>
<path d="M79.4605 39.3567V43.9978H77.1168V34.0449H79.4605V38.1078H81.2876V34.0449H83.6313V43.9978H81.2876V39.3567H79.4605Z" fill="#176207"/>
<path d="M92.6669 43.9902H90.3309V40.3822H88.4267V43.9902H86.0907V34.0527H90.5082C91.2098 34.0527 91.7495 34.2455 92.1195 34.6309C92.4896 35.0164 92.6746 35.5175 92.6746 36.1497V43.9902H92.6669ZM90.3309 39.141V36.435C90.3309 36.1112 90.2461 35.8259 90.0765 35.5869C89.9069 35.3479 89.6756 35.2246 89.3749 35.2246H88.419V39.141H90.3309Z" fill="#176207"/>
<path d="M101.996 34.0527C101.996 34.5538 101.865 34.947 101.595 35.24C101.325 35.533 100.963 35.6794 100.492 35.6794H99.4903V43.9979H97.1466V35.6794H94.641C94.641 35.1783 94.7721 34.7774 95.0419 34.4922C95.3117 34.1992 95.6741 34.0604 96.1443 34.0604H101.996V34.0527Z" fill="#176207"/>
</svg>
