<svg width="9" height="9" viewBox="0 0 9 9" fill="none" xmlns="http://www.w3.org/2000/svg">
<path d="M4.3823 8.85936C1.96242 8.85936 0 6.87564 0 4.4296C0 1.98355 1.96242 0 4.3823 0C6.80217 0 8.7646 1.98355 8.7646 4.4296C8.7646 6.87564 6.80217 8.85936 4.3823 8.85936ZM2.85082 5.31424V6.19888H3.94473V7.08336H4.81987V6.19888H5.25743C5.86074 6.19888 6.35135 5.70288 6.35135 5.09304C6.35135 4.4832 5.86074 3.98736 5.25743 3.98736H3.50716C3.38783 3.98736 3.28839 3.88678 3.28839 3.76616C3.28839 3.64553 3.38783 3.54495 3.50716 3.54495H5.91379V2.66047H4.81987V1.77583H3.94473V2.66047H3.50716C2.90385 2.66047 2.41325 3.15632 2.41325 3.76616C2.41325 4.37599 2.90385 4.87184 3.50716 4.87184H5.25743C5.37677 4.87184 5.47622 4.97241 5.47622 5.09304C5.47622 5.21367 5.37677 5.31424 5.25743 5.31424H2.85082Z" fill="#176207"/>
</svg>
