<svg width="9" height="11" viewBox="0 0 9 11" fill="none" xmlns="http://www.w3.org/2000/svg">
<path d="M7.26394 7.16247L4.25363 10.1334L1.24331 7.16247C-0.414438 5.52634 -0.414438 2.86323 1.24331 1.2271C2.90107 -0.409033 5.59925 -0.409033 7.257 1.2271C8.91475 2.86323 8.91475 5.52634 7.257 7.16247H7.26394ZM4.25363 6.06023C5.30099 6.06023 6.14721 5.22506 6.14721 4.19136C6.14721 3.15765 5.30099 2.32248 4.25363 2.32248C3.20626 2.32248 2.36004 3.15765 2.36004 4.19136C2.36004 5.22506 3.20626 6.06023 4.25363 6.06023ZM4.25363 5.1293C3.73341 5.1293 3.3103 4.71164 3.3103 4.19821C3.3103 3.68478 3.73341 3.26728 4.25363 3.26728C4.77384 3.26728 5.19695 3.68478 5.19695 4.19821C5.19695 4.71164 4.77384 5.1293 4.25363 5.1293Z" fill="#176207"/>
</svg>
