<svg width="168" height="167" viewBox="0 0 168 167" fill="none" xmlns="http://www.w3.org/2000/svg">
<path d="M0 158.16L0.870026 157.29L9.63007 166.05L8.76004 166.92L0 158.16ZM5.18253 162.082L7.98001 159.285C8.31751 158.948 8.54252 158.565 8.64752 158.145C8.75252 157.725 8.73756 157.305 8.59506 156.885C8.46006 156.465 8.20505 156.067 7.83005 155.7C7.45505 155.325 7.05757 155.07 6.63007 154.927C6.20257 154.785 5.78252 154.77 5.36252 154.875C4.94252 154.98 4.5675 155.205 4.2225 155.542L1.42502 158.34L0.615051 157.53L3.375 154.77C3.9 154.245 4.47002 153.9 5.08502 153.727C5.70752 153.555 6.33002 153.563 6.95252 153.743C7.57502 153.923 8.15257 154.29 8.69257 154.822C9.22507 155.355 9.57752 155.932 9.76502 156.547C9.95252 157.17 9.95253 157.792 9.78003 158.415C9.60753 159.037 9.25502 159.607 8.73752 160.132L5.97757 162.892L5.18253 162.082Z" fill="#FFC103"/>
<path d="M17.2579 157.838C16.5454 158.048 15.8254 158.025 15.1054 157.785C14.3854 157.545 13.6805 157.08 12.998 156.398L10.5154 153.915C9.83292 153.232 9.36794 152.528 9.12794 151.808C8.88794 151.088 8.87288 150.368 9.07538 149.655C9.27788 148.943 9.71295 148.26 10.3579 147.607C11.0029 146.955 11.6929 146.527 12.4054 146.325C13.1179 146.115 13.8379 146.137 14.5579 146.377C15.2779 146.617 15.983 147.082 16.6655 147.765L19.1479 150.248C19.8304 150.93 20.2954 151.635 20.5354 152.355C20.7754 153.075 20.7905 153.795 20.588 154.507C20.3855 155.22 19.9504 155.903 19.3054 156.555C18.6529 157.208 17.9704 157.635 17.2579 157.838ZM19.4104 154.267C19.5529 153.75 19.5379 153.225 19.3504 152.7C19.1704 152.175 18.8254 151.658 18.3229 151.155L15.7579 148.59C15.2554 148.088 14.738 147.75 14.213 147.563C13.688 147.375 13.1629 147.36 12.6454 147.502C12.1279 147.645 11.6329 147.952 11.1679 148.417C10.7029 148.882 10.3954 149.377 10.2529 149.895C10.1104 150.412 10.1254 150.938 10.3129 151.463C10.4929 151.988 10.8379 152.505 11.3404 153.007L13.9054 155.572C14.4079 156.075 14.9254 156.42 15.4504 156.6C15.9754 156.78 16.5005 156.802 17.018 156.66C17.5355 156.517 18.0304 156.21 18.4954 155.745C18.9604 155.28 19.2679 154.785 19.4104 154.267Z" fill="#FFC103"/>
<path d="M25.012 150.135C24.322 150.352 23.6246 150.338 22.9271 150.09C22.2296 149.843 21.5245 149.37 20.8045 148.65L15.1571 143.002L16.027 142.132L21.7196 147.825C22.4846 148.59 23.242 148.987 23.992 149.002C24.742 149.017 25.4846 148.657 26.2271 147.922C26.9696 147.187 27.3296 146.438 27.3146 145.688C27.2996 144.938 26.9095 144.172 26.1445 143.407L20.4521 137.715L21.3221 136.845L26.9696 142.493C27.6821 143.205 28.162 143.91 28.4095 144.615C28.657 145.312 28.6646 146.01 28.4471 146.707C28.2296 147.405 27.772 148.095 27.0895 148.778C26.3845 149.468 25.702 149.917 25.012 150.135Z" fill="#FFC103"/>
<path d="M23.2354 134.917L24.1054 134.047L32.8654 142.807L31.9954 143.677L23.2354 134.917ZM28.0204 138.63L31.0054 135.644C31.3279 135.322 31.5454 134.962 31.6504 134.572C31.7554 134.182 31.7404 133.792 31.6204 133.394C31.4929 132.997 31.2604 132.63 30.9229 132.285C30.5854 131.94 30.2104 131.707 29.8204 131.579C29.4229 131.452 29.0329 131.444 28.6429 131.549C28.2529 131.654 27.8929 131.872 27.5629 132.202L24.5779 135.187L23.7679 134.377L26.7079 131.437C27.2104 130.935 27.7654 130.589 28.3579 130.417C28.9504 130.244 29.5429 130.244 30.1354 130.417C30.7279 130.589 31.2754 130.927 31.7779 131.43C32.2804 131.932 32.6179 132.48 32.7904 133.072C32.9629 133.665 32.9629 134.257 32.7829 134.857C32.6104 135.449 32.2653 135.997 31.7628 136.5L28.8229 139.44L28.0204 138.63ZM31.3654 136.357L31.8904 135.277L38.3854 137.287L37.3504 138.322L31.3654 136.357Z" fill="#FFC103"/>
<path d="M44.288 130.808C43.5755 131.018 42.8555 130.995 42.1355 130.755C41.4155 130.515 40.7105 130.05 40.028 129.368L37.5455 126.885C36.863 126.202 36.398 125.498 36.158 124.778C35.918 124.058 35.903 123.338 36.1055 122.625C36.308 121.913 36.7429 121.23 37.3879 120.577C38.0404 119.925 38.7155 119.497 39.4355 119.295C40.148 119.085 40.868 119.107 41.588 119.347C42.308 119.587 43.013 120.052 43.6955 120.735L46.178 123.218C46.8605 123.9 47.3255 124.605 47.5655 125.325C47.8055 126.045 47.8205 126.765 47.618 127.477C47.408 128.19 46.9805 128.873 46.3355 129.525C45.683 130.17 45.0005 130.598 44.288 130.808ZM46.4405 127.237C46.583 126.72 46.568 126.195 46.3805 125.67C46.2005 125.145 45.8555 124.628 45.353 124.125L42.788 121.56C42.2855 121.058 41.7755 120.712 41.243 120.532C40.718 120.352 40.193 120.33 39.6755 120.472C39.158 120.615 38.663 120.922 38.198 121.387C37.733 121.852 37.4255 122.347 37.283 122.865C37.1405 123.382 37.1555 123.908 37.343 124.433C37.523 124.958 37.868 125.475 38.3705 125.977L40.9355 128.542C41.438 129.045 41.9555 129.39 42.4805 129.57C43.0055 129.75 43.5304 129.772 44.0479 129.63C44.5654 129.487 45.0605 129.18 45.5255 128.715C45.9905 128.25 46.298 127.755 46.4405 127.237Z" fill="#FFC103"/>
<path d="M52.0425 123.097C51.3525 123.315 50.655 123.3 49.9575 123.052C49.26 122.805 48.555 122.325 47.835 121.612L42.1875 115.965L43.0575 115.095L48.75 120.787C49.515 121.552 50.2725 121.95 51.0225 121.965C51.7725 121.98 52.515 121.62 53.2575 120.885C53.9925 120.15 54.3601 119.4 54.3451 118.65C54.3301 117.9 53.94 117.135 53.175 116.37L47.4825 110.677L48.3526 109.808L54 115.455C54.7125 116.167 55.1925 116.872 55.44 117.577C55.6875 118.275 55.6951 118.972 55.4776 119.67C55.2601 120.367 54.8025 121.057 54.12 121.74C53.4225 122.43 52.7325 122.88 52.0425 123.097Z" fill="#FFC103"/>
<path d="M50.2656 107.88L51.1357 107.01L59.8956 115.769L59.0257 116.639L50.2656 107.88ZM55.0581 111.6L58.0431 108.614C58.3656 108.292 58.5831 107.932 58.6881 107.542C58.7931 107.152 58.7782 106.762 58.6582 106.364C58.5307 105.967 58.2981 105.6 57.9606 105.255C57.6231 104.91 57.2482 104.677 56.8582 104.549C56.4607 104.422 56.0706 104.414 55.6806 104.519C55.2906 104.624 54.9306 104.842 54.6006 105.172L51.6157 108.157L50.8056 107.347L53.7456 104.407C54.2481 103.905 54.8031 103.559 55.3956 103.387C55.9881 103.214 56.5806 103.214 57.1731 103.387C57.7656 103.559 58.3131 103.897 58.8156 104.4C59.3181 104.902 59.6556 105.449 59.8281 106.042C60.0006 106.634 60.0006 107.227 59.8206 107.827C59.6481 108.419 59.3031 108.967 58.8006 109.47L55.8606 112.41L55.0581 111.6ZM58.3956 109.327L58.9207 108.247L65.4157 110.257L64.3807 111.292L58.3956 109.327Z" fill="#FFC103"/>
<path d="M61.6279 96.5325L62.498 95.6624L71.2579 104.422L70.3879 105.292L61.6279 96.5325ZM66.2179 99.9602L71.4379 94.7395L72.2779 95.5796L67.0579 100.8L66.2179 99.9602ZM66.9604 91.1997L67.8304 90.3296L76.5904 99.0901L75.7205 99.9602L66.9604 91.1997Z" fill="#FFC103"/>
<path d="M69.998 88.1624L70.868 87.2922L79.628 96.052L78.758 96.9221L69.998 88.1624ZM70.5905 87.5698L75.6155 82.5374L76.4255 83.3474L71.4005 88.3726L70.5905 87.5698ZM74.5956 91.5747L78.9605 87.2102L79.7705 88.0195L75.4055 92.3848L74.5956 91.5747ZM78.5406 95.5195L83.5655 90.4871L84.3755 91.2971L79.3505 96.3223L78.5406 95.5195Z" fill="#FFC103"/>
<path d="M79.755 78.405L80.8049 77.3547L92.79 82.8823L91.8225 83.8499L81.1874 78.7874L86.2499 89.4221L85.2825 90.3896L79.755 78.405ZM83.835 85.9724L88.44 81.3677L89.2499 82.177L84.6449 86.7825L83.835 85.9724Z" fill="#FFC103"/>
<path d="M85.3496 72.8017L86.2196 71.9324L94.9796 80.6921L94.1096 81.5622L85.3496 72.8017ZM90.1346 76.5144L93.1196 73.5298C93.4421 73.2073 93.6596 72.8468 93.7646 72.4568C93.8696 72.0668 93.8546 71.6773 93.7346 71.2798C93.6071 70.8823 93.3746 70.5144 93.0371 70.1694C92.6996 69.8244 92.3246 69.5923 91.9346 69.4648C91.5371 69.3373 91.1471 69.3298 90.7571 69.4348C90.3671 69.5398 90.0071 69.7574 89.6771 70.0874L86.6921 73.072L85.8821 72.2619L88.8221 69.322C89.3246 68.8195 89.8796 68.4742 90.4721 68.3017C91.0646 68.1292 91.6571 68.1292 92.2496 68.3017C92.8421 68.4742 93.3896 68.8122 93.8921 69.3147C94.3946 69.8172 94.7321 70.3643 94.9046 70.9568C95.0771 71.5493 95.0771 72.1424 94.8971 72.7424C94.7246 73.3349 94.3796 73.882 93.8771 74.3845L90.9371 77.3244L90.1346 76.5144ZM93.4796 74.2497L94.0046 73.1694L100.5 75.1799L99.4646 76.2148L93.4796 74.2497Z" fill="#FFC103"/>
<path d="M92.1904 65.97L98.3704 59.7898L99.1804 60.5999L93.0004 66.78L92.1904 65.97ZM95.1979 63.6746L96.068 62.8052L104.468 71.2046L103.598 72.0747L95.1979 63.6746Z" fill="#FFC103"/>
<path d="M109.492 66.1201C109.035 66.4201 108.562 66.6524 108.075 66.8174C107.587 66.9824 107.077 67.0873 106.552 67.1323L106.387 65.9246C107.07 65.8796 107.715 65.715 108.322 65.4375C108.922 65.16 109.485 64.7546 110.002 64.2371C110.752 63.4871 111.187 62.7596 111.3 62.0471C111.412 61.3421 111.202 60.7127 110.662 60.1802H110.655C110.325 59.8352 109.965 59.6621 109.582 59.6396C109.2 59.6171 108.825 59.6999 108.435 59.8799C108.052 60.0599 107.595 60.3373 107.062 60.6973C107.047 60.6973 107.032 60.7123 107.017 60.7273C107.002 60.7423 106.987 60.7496 106.965 60.7646L106.755 60.9001C106.027 61.3951 105.412 61.7698 104.917 62.0098C104.422 62.2498 103.89 62.3551 103.327 62.3101C102.765 62.2651 102.217 61.9724 101.677 61.4399H101.67C101.13 60.8924 100.785 60.307 100.642 59.677C100.5 59.0545 100.567 58.4021 100.83 57.7346C101.092 57.0671 101.557 56.4074 102.21 55.7549C102.517 55.4474 102.862 55.1775 103.23 54.9375C103.597 54.705 104.002 54.5025 104.43 54.345C104.857 54.1875 105.322 54.0598 105.817 53.9773L105.982 55.1697C105.337 55.2822 104.775 55.455 104.28 55.6875C103.785 55.92 103.365 56.2124 103.012 56.5649C102.3 57.2774 101.895 57.9827 101.805 58.6802C101.715 59.3777 101.94 59.9923 102.487 60.5398H102.495C102.825 60.8773 103.185 61.0349 103.567 61.0349C103.957 61.0349 104.34 60.9298 104.722 60.7273C105.105 60.5323 105.6 60.2248 106.207 59.8198C106.23 59.8048 106.245 59.7975 106.267 59.7825C106.29 59.7675 106.312 59.7521 106.335 59.7371C106.365 59.7146 106.387 59.7001 106.417 59.6851C106.447 59.6701 106.477 59.6548 106.5 59.6323C107.16 59.1973 107.752 58.8671 108.262 58.6421C108.772 58.4246 109.305 58.3424 109.852 58.4099C110.4 58.4774 110.94 58.7699 111.457 59.2874L111.472 59.302C112.005 59.8345 112.335 60.4196 112.462 61.0496C112.59 61.6796 112.515 62.3396 112.23 63.0146C111.945 63.6896 111.472 64.3721 110.79 65.0471C110.385 65.4671 109.95 65.8276 109.492 66.1201Z" fill="#FFC103"/>
<path d="M120.038 55.6348L119.168 56.5049L110.408 47.7451L111.278 46.875L120.038 55.6348Z" fill="#FFC103"/>
<path d="M113.633 44.5276L114.503 43.6501L127.478 46.4546L126.885 46.5674L119.235 38.9172L120.105 38.0471L128.858 46.7996L127.973 47.6851L114.84 44.9246L115.65 44.7971L123.255 52.4026L122.385 53.2727L113.633 44.5276Z" fill="#FFC103"/>
<path d="M121.546 36.6145L127.726 30.4351L128.536 31.2451L122.356 37.4246L121.546 36.6145ZM124.561 34.3125L125.431 33.4424L133.831 41.8425L132.961 42.7126L124.561 34.3125Z" fill="#FFC103"/>
<path d="M138.39 36.7046C137.677 36.9146 136.957 36.8926 136.237 36.6526C135.517 36.4126 134.812 35.9472 134.13 35.2647L131.647 32.7825C130.965 32.1 130.5 31.3946 130.26 30.6746C130.02 29.9546 130.005 29.2352 130.207 28.5227C130.417 27.8102 130.845 27.1274 131.49 26.4749C132.142 25.8224 132.825 25.3949 133.537 25.1924C134.25 24.9824 134.97 25.0051 135.69 25.2451C136.41 25.4851 137.115 25.9498 137.797 26.6323L140.28 29.1145C140.962 29.797 141.427 30.5024 141.667 31.2224C141.907 31.9424 141.922 32.6625 141.72 33.375C141.517 34.0875 141.082 34.7696 140.437 35.4221C139.785 36.0671 139.102 36.5021 138.39 36.7046ZM140.542 33.1348C140.685 32.6173 140.67 32.0924 140.482 31.5674C140.302 31.0424 139.957 30.5252 139.455 30.0227L136.89 27.457C136.387 26.9545 135.87 26.6177 135.345 26.4302C134.82 26.2502 134.295 26.2276 133.777 26.3701C133.26 26.5126 132.765 26.8199 132.3 27.2849C131.835 27.7499 131.527 28.2447 131.385 28.7622C131.242 29.2797 131.257 29.8046 131.445 30.3296C131.625 30.8546 131.97 31.3725 132.472 31.875L135.037 34.44C135.54 34.9425 136.057 35.2875 136.582 35.4675C137.107 35.6475 137.632 35.6701 138.15 35.5276C138.667 35.3851 139.162 35.0771 139.627 34.6121C140.092 34.1471 140.4 33.6598 140.542 33.1348Z" fill="#FFC103"/>
<path d="M75.7201 0.127441H78.0975V12.7273H75.7201V0.127441ZM76.8 5.54956H80.8275C81.1125 5.54956 81.36 5.48224 81.5775 5.35474C81.795 5.22724 81.9601 5.04012 82.0876 4.80762C82.2076 4.56762 82.2676 4.297 82.2676 3.9895C82.2676 3.682 82.2076 3.40479 82.0876 3.16479C81.9676 2.92479 81.8026 2.73712 81.5851 2.60962C81.3676 2.48212 81.1125 2.41479 80.8275 2.41479H76.8V0.127441H80.7676C81.5551 0.127441 82.2451 0.284678 82.8451 0.607178C83.4451 0.929678 83.9101 1.38009 84.2326 1.96509C84.5626 2.55009 84.7276 3.2245 84.7276 3.9895C84.7276 4.7545 84.5626 5.42965 84.2326 6.01465C83.9026 6.59215 83.4376 7.042 82.8451 7.3645C82.2451 7.6795 81.5551 7.84497 80.7676 7.84497H76.8V5.54956Z" fill="#FFC103"/>
<path d="M87.1283 0.127441H89.5058V12.7273H87.1283V0.127441ZM87.9833 0.127441H95.5658V2.41479H87.9833V0.127441ZM87.9833 5.32471H94.6133V7.61206H87.9833V5.32471ZM87.9833 10.4399H95.5658V12.7273H87.9833V10.4399Z" fill="#FFC103"/>
<path d="M98.2572 0.120117H100.635V12.7273H98.2572V0.120117ZM99.2022 5.37012H103.59C103.83 5.37012 104.047 5.30994 104.227 5.18994C104.415 5.06994 104.557 4.89712 104.655 4.67212C104.752 4.44712 104.812 4.18459 104.812 3.89209C104.812 3.59959 104.76 3.33706 104.662 3.11206C104.565 2.88706 104.415 2.71497 104.235 2.59497C104.047 2.47497 103.83 2.41479 103.582 2.41479H99.1947V0.127441H103.77C104.46 0.127441 105.075 0.285029 105.6 0.592529C106.125 0.907529 106.53 1.34235 106.822 1.91235C107.115 2.48235 107.257 3.14209 107.257 3.89209C107.257 4.64209 107.115 5.30256 106.822 5.87256C106.53 6.44256 106.125 6.88488 105.6 7.19238C105.075 7.49988 104.46 7.65747 103.777 7.65747H99.2022V5.37012ZM101.857 7.26709L104.392 6.87012L107.79 12.7273H104.917L101.857 7.26709Z" fill="#FFC103"/>
<path d="M110.363 0.127441H112.74V12.7273H110.363V0.127441ZM111.225 0.127441H118.635V2.41479H111.225V0.127441ZM111.225 5.4375H117.683V7.72485H111.225V5.4375Z" fill="#FFC103"/>
<path d="M120.983 0.127441H123.36V12.7273H120.983V0.127441ZM121.845 0.127441H129.428V2.41479H121.845V0.127441ZM121.845 5.32471H128.475V7.61206H121.845V5.32471ZM121.845 10.4399H129.428V12.7273H121.845V10.4399Z" fill="#FFC103"/>
<path d="M133.958 12.3076C133.275 11.9401 132.758 11.4071 132.398 10.7021C132.038 9.99715 131.858 9.14991 131.858 8.15991V4.70215C131.858 3.71215 132.038 2.85741 132.398 2.15991C132.758 1.45491 133.275 0.922676 133.958 0.555176C134.64 0.187676 135.458 0 136.418 0C137.213 0 137.918 0.172266 138.54 0.509766C139.163 0.847266 139.68 1.34262 140.085 1.99512C140.49 2.64762 140.775 3.42735 140.933 4.34985H138.473C138.383 3.93735 138.24 3.57741 138.045 3.28491C137.85 2.99241 137.618 2.76712 137.34 2.60962C137.063 2.45212 136.755 2.37744 136.418 2.37744C135.975 2.37744 135.593 2.46771 135.285 2.64771C134.97 2.82771 134.738 3.09738 134.573 3.44238C134.408 3.79488 134.325 4.21465 134.325 4.70215V8.15991C134.325 8.65491 134.408 9.06718 134.573 9.41968C134.738 9.76468 134.978 10.0276 135.285 10.2151C135.6 10.3951 135.975 10.4846 136.418 10.4846C136.763 10.4846 137.078 10.4099 137.355 10.2524C137.633 10.1024 137.865 9.87715 138.06 9.57715C138.255 9.27715 138.39 8.92488 138.473 8.50488H140.933C140.768 9.41988 140.49 10.2071 140.078 10.8596C139.673 11.5121 139.155 12.0075 138.533 12.345C137.91 12.6825 137.205 12.8547 136.418 12.8547C135.458 12.8547 134.64 12.6751 133.958 12.3076Z" fill="#FFC103"/>
<path d="M141.9 0.127441H151.132V2.41479H141.9V0.127441ZM145.327 1.16235H147.697V12.7273H145.327V1.16235Z" fill="#FFC103"/>
<path d="M154.883 5.08521C155.003 4.50771 155.183 3.96759 155.416 3.46509C155.648 2.96259 155.933 2.50468 156.263 2.10718L158.221 3.21021C157.823 3.69771 157.516 4.25215 157.298 4.88965C157.081 5.52715 156.976 6.17991 156.976 6.84741C156.976 7.61991 157.111 8.22021 157.373 8.64771C157.636 9.07521 158.011 9.29224 158.483 9.29224H158.491C158.828 9.29224 159.091 9.19482 159.286 9.00732C159.481 8.81982 159.623 8.56465 159.721 8.26465C159.811 7.95715 159.893 7.56765 159.968 7.08765C159.976 7.07265 159.976 7.05724 159.976 7.04224C159.976 7.02724 159.976 7.01256 159.983 6.99756L160.006 6.81006C160.141 5.97006 160.306 5.26521 160.501 4.71021C160.703 4.15521 161.048 3.68206 161.551 3.29956C162.053 2.91706 162.758 2.72241 163.681 2.72241H163.688C164.506 2.72241 165.196 2.90203 165.773 3.26953C166.351 3.62953 166.793 4.16229 167.093 4.85229C167.393 5.54229 167.551 6.382 167.551 7.3645C167.551 7.8145 167.498 8.27262 167.393 8.74512C167.288 9.21762 167.138 9.675 166.943 10.125C166.748 10.575 166.508 11.0025 166.231 11.4075L164.221 10.4026C164.558 9.91509 164.813 9.41238 165.001 8.87988C165.188 8.35488 165.278 7.84468 165.278 7.35718C165.278 6.62968 165.158 6.06718 164.918 5.66968C164.678 5.27218 164.341 5.06982 163.906 5.06982H163.898C163.538 5.06982 163.246 5.17477 163.036 5.38477C162.826 5.59477 162.668 5.84997 162.571 6.15747C162.473 6.46497 162.368 6.89227 162.256 7.44727C162.248 7.46977 162.248 7.49215 162.241 7.51465C162.241 7.53715 162.233 7.55953 162.226 7.58203C162.218 7.61953 162.211 7.65018 162.203 7.68018C162.196 7.71018 162.188 7.74759 162.181 7.77759C162.023 8.57259 161.836 9.24021 161.611 9.77271C161.386 10.3052 161.033 10.7545 160.538 11.1145C160.043 11.4745 159.368 11.655 158.513 11.655H158.498C157.696 11.655 157.006 11.4675 156.436 11.0925C155.866 10.7175 155.431 10.1697 155.131 9.44971C154.831 8.72971 154.681 7.86724 154.681 6.85474C154.696 6.24724 154.756 5.65521 154.883 5.08521Z" fill="#FFC103"/>
<path d="M155.273 15.5698C155.656 14.8723 156.203 14.332 156.901 13.957C157.606 13.5745 158.416 13.3872 159.338 13.3872H162.908C163.831 13.3872 164.648 13.5745 165.346 13.957C166.051 14.3395 166.591 14.8798 166.973 15.5698C167.356 16.2673 167.551 17.0696 167.551 17.9846C167.551 18.8996 167.356 19.7026 166.973 20.4001C166.591 21.0976 166.043 21.6372 165.346 22.0122C164.641 22.3947 163.831 22.582 162.908 22.582H159.338C158.416 22.582 157.598 22.3947 156.901 22.0122C156.196 21.6297 155.656 21.0901 155.273 20.4001C154.891 19.7026 154.696 18.8996 154.696 17.9846C154.696 17.0696 154.891 16.2673 155.273 15.5698ZM157.343 19.1096C157.523 19.4321 157.786 19.6796 158.116 19.8596C158.453 20.0396 158.836 20.1226 159.278 20.1226H162.968C163.411 20.1226 163.793 20.0321 164.131 19.8596C164.468 19.6871 164.723 19.4321 164.903 19.1096C165.083 18.7871 165.173 18.4121 165.173 17.9846C165.173 17.5571 165.083 17.1821 164.903 16.8596C164.723 16.5371 164.461 16.2896 164.131 16.1096C163.793 15.9371 163.411 15.8474 162.968 15.8474H159.278C158.836 15.8474 158.453 15.9371 158.116 16.1096C157.778 16.2896 157.523 16.5371 157.343 16.8596C157.163 17.1821 157.073 17.5571 157.073 17.9846C157.073 18.4121 157.163 18.7871 157.343 19.1096Z" fill="#FFC103"/>
<path d="M167.423 25.1023V27.4797H154.823V25.1023H167.423ZM157.118 26.1599V33.5398H154.831V26.1599H157.118Z" fill="#FFC103"/>
<path d="M155.251 37.0349C155.618 36.3449 156.151 35.8275 156.856 35.4675C157.561 35.1075 158.401 34.927 159.391 34.927H167.431V37.3052H159.331C158.611 37.3052 158.048 37.4998 157.651 37.8823C157.253 38.2723 157.051 38.8121 157.051 39.5171C157.051 40.2221 157.253 40.7772 157.651 41.1672C158.048 41.5572 158.611 41.7524 159.331 41.7524H167.431V44.1299H159.391C158.401 44.1299 157.561 43.9501 156.856 43.5901C156.151 43.2301 155.618 42.7046 155.251 42.0146C154.883 41.3246 154.703 40.4926 154.703 39.5251C154.703 38.5576 154.883 37.7174 155.251 37.0349Z" fill="#FFC103"/>
<path d="M166.395 48.5999V50.9773H154.83V48.5999H166.395ZM167.423 45.1721V54.405H165.135V45.1721H167.423Z" fill="#FFC103"/>
<path d="M154.83 58.2598V55.7996H167.43V58.2598H154.83Z" fill="#FFC103"/>
<path d="M155.273 62.9626C155.656 62.2651 156.203 61.7249 156.901 61.3499C157.606 60.9674 158.416 60.78 159.338 60.78H162.908C163.831 60.78 164.648 60.9674 165.346 61.3499C166.051 61.7324 166.591 62.2726 166.973 62.9626C167.356 63.6601 167.551 64.4624 167.551 65.3774C167.551 66.2924 167.356 67.0947 166.973 67.7922C166.591 68.4897 166.043 69.03 165.346 69.405C164.641 69.7875 163.831 69.9749 162.908 69.9749H159.338C158.416 69.9749 157.598 69.7875 156.901 69.405C156.196 69.0225 155.656 68.4822 155.273 67.7922C154.891 67.0947 154.696 66.2924 154.696 65.3774C154.696 64.4624 154.891 63.6601 155.273 62.9626ZM157.343 66.5024C157.523 66.8249 157.786 67.0724 158.116 67.2524C158.453 67.4324 158.836 67.5146 159.278 67.5146H162.968C163.411 67.5146 163.793 67.4249 164.131 67.2524C164.468 67.0799 164.723 66.8249 164.903 66.5024C165.083 66.1799 165.173 65.8049 165.173 65.3774C165.173 64.9499 165.083 64.5749 164.903 64.2524C164.723 63.9299 164.461 63.6824 164.131 63.5024C163.793 63.3224 163.411 63.2395 162.968 63.2395H159.278C158.836 63.2395 158.453 63.3299 158.116 63.5024C157.778 63.6749 157.523 63.9299 157.343 64.2524C157.163 64.5749 157.073 64.9499 157.073 65.3774C157.073 65.8049 157.163 66.1799 157.343 66.5024Z" fill="#FFC103"/>
<path d="M167.424 72.4951V75.3977L157.771 80.0852L157.546 79.875H167.424V82.1477H154.839V79.2297L164.341 74.5576L164.566 74.7671H154.839V72.4951H167.424Z" fill="#FFC103"/>
<path d="M154.883 87.2922C155.003 86.7147 155.183 86.1746 155.416 85.6721C155.648 85.1696 155.933 84.7124 156.263 84.3149L158.221 85.4172C157.823 85.9047 157.516 86.4599 157.298 87.0974C157.081 87.7349 156.976 88.3877 156.976 89.0552C156.976 89.8277 157.111 90.4272 157.373 90.8547C157.636 91.2822 158.011 91.5 158.483 91.5H158.491C158.828 91.5 159.091 91.4026 159.286 91.2151C159.481 91.0276 159.623 90.7799 159.721 90.4724C159.811 90.1649 159.893 89.7747 159.968 89.2947C159.976 89.2797 159.976 89.265 159.976 89.25C159.976 89.235 159.976 89.2196 159.983 89.2046L160.006 89.0171C160.141 88.1771 160.306 87.4722 160.501 86.9172C160.696 86.3622 161.048 85.8898 161.551 85.5073C162.053 85.1173 162.758 84.9302 163.681 84.9302H163.688C164.506 84.9302 165.196 85.1098 165.773 85.4773C166.351 85.8373 166.793 86.3701 167.093 87.0601C167.393 87.7501 167.551 88.5898 167.551 89.5723C167.551 90.0223 167.498 90.4796 167.393 90.9521C167.288 91.4246 167.138 91.882 166.943 92.332C166.748 92.782 166.508 93.2095 166.231 93.6145L164.221 92.6096C164.558 92.1221 164.813 91.6201 165.001 91.0876C165.188 90.5626 165.278 90.0524 165.278 89.5649C165.278 88.8374 165.158 88.2749 164.918 87.8774C164.678 87.4799 164.341 87.2776 163.906 87.2776H163.898C163.538 87.2776 163.246 87.3825 163.036 87.5925C162.826 87.8025 162.668 88.057 162.571 88.3645C162.473 88.672 162.368 89.1 162.256 89.655C162.248 89.6775 162.248 89.6999 162.241 89.7224C162.241 89.7449 162.233 89.7673 162.226 89.7898C162.218 89.8273 162.211 89.8572 162.203 89.8872C162.196 89.9172 162.188 89.9546 162.181 89.9846C162.023 90.7796 161.836 91.4472 161.611 91.9797C161.386 92.5122 161.033 92.9623 160.538 93.3223C160.043 93.6823 159.368 93.8621 158.513 93.8621H158.498C157.696 93.8621 157.006 93.6746 156.436 93.2996C155.866 92.9246 155.431 92.3775 155.131 91.6575C154.831 90.9375 154.681 90.075 154.681 89.0625C154.696 88.455 154.756 87.8622 154.883 87.2922Z" fill="#FFC103"/>
</svg>
